<svg version="1.1" id="Layer_1" xmlns="http://www.w3.org/2000/svg" xmlns:xlink="http://www.w3.org/1999/xlink" x="0px" y="0px"
	 width="100%" viewBox="0 0 1080 1080" enable-background="new 0 0 1080 1080" xml:space="preserve">
<path fill="#000000" opacity="1.000000" stroke="none" 
	d="
M623.000000,1081.000000 
	C416.857056,1081.000000 211.214127,1080.989502 5.571239,1081.085571 
	C1.954491,1081.087280 0.894847,1080.484741 0.896074,1076.572266 
	C1.008015,719.613464 1.009642,362.654633 0.882681,5.695867 
	C0.881198,1.527682 1.861332,0.895772 5.803111,0.896999 
	C362.595245,1.008004 719.387390,1.007740 1076.179565,0.899474 
	C1080.085205,0.898289 1081.121094,1.473242 1081.119507,5.678496 
	C1080.990112,362.470612 1080.989502,719.262756 1081.122559,1076.054932 
	C1081.124146,1080.431641 1080.032349,1081.104492 1075.946167,1081.101196 
	C925.130859,1080.981079 774.315430,1081.000000 623.000000,1081.000000 
z"/>
<path fill="#F6F6F7" opacity="1.000000" stroke="none" 
	d="
M832.235107,507.672485 
	C828.661133,502.096771 825.272644,496.845245 821.954285,491.549835 
	C819.709839,487.968170 816.180603,488.884644 813.033142,489.143738 
	C811.181335,489.296173 812.074524,491.328247 812.062683,492.471191 
	C811.976501,500.793945 811.907776,509.120270 812.077881,517.440430 
	C812.133850,520.176147 811.506836,521.338318 808.571716,521.040588 
	C803.828491,520.559387 797.652649,523.011169 794.719299,520.048340 
	C792.440613,517.746887 794.018311,511.552338 794.012756,507.087952 
	C793.984863,484.614105 794.121277,462.138947 793.889160,439.667450 
	C793.846863,435.578033 795.124451,434.813904 798.844788,434.916107 
	C808.160278,435.172058 817.517151,434.535187 826.801880,435.127533 
	C836.661194,435.756500 845.839661,438.285156 850.918762,448.320770 
	C853.689453,453.795380 854.611633,469.682037 848.773865,475.663300 
	C845.916260,478.591217 843.459412,482.124969 839.580444,483.796082 
	C836.752014,485.014618 839.286621,486.424652 839.570435,486.863037 
	C846.115906,496.972656 852.815979,506.982788 859.557190,516.964172 
	C860.295044,518.056763 861.600098,518.945923 860.791809,520.383240 
	C860.104004,521.606140 858.695374,520.801514 857.624390,520.995117 
	C845.895996,523.114624 837.242859,519.276855 832.235107,507.672485 
z"/>
<path fill="#F6F6F7" opacity="1.000000" stroke="none" 
	d="
M401.994904,477.000000 
	C401.995178,463.840454 402.077209,451.179962 401.931976,438.522095 
	C401.900024,435.738800 402.595001,434.701324 405.474731,434.956024 
	C410.553406,435.405243 417.182098,432.901337 420.287170,436.003662 
	C422.730865,438.445190 420.966309,445.136475 421.002075,449.940521 
	C421.044189,455.603699 421.127075,461.270569 420.971405,466.929749 
	C420.868164,470.681458 422.514374,470.289032 425.176514,469.378876 
	C428.841125,468.125946 430.083282,464.611359 432.173950,462.089996 
	C438.809143,454.087799 444.876801,445.622864 451.615845,437.677704 
	C453.184204,435.828674 454.542938,434.980896 456.760925,434.993622 
	C461.258270,435.019440 465.756653,435.053070 470.253021,434.982788 
	C473.191284,434.936920 474.044281,435.850037 472.085632,438.368042 
	C468.502502,442.974579 464.986267,447.635284 461.316833,452.172028 
	C455.277405,459.638824 449.131531,467.019379 443.058228,474.458954 
	C442.709320,474.886383 442.120789,474.959839 443.016846,476.102325 
	C453.380524,489.315674 463.512299,502.712158 473.578003,516.155640 
	C474.347137,517.182861 475.560699,518.600586 474.859070,520.182312 
	C474.129639,521.826599 472.510132,520.929871 471.341278,520.954041 
	C454.273926,521.306885 454.348083,521.234741 443.978790,506.303986 
	C439.552551,499.930695 434.744965,493.822052 430.098694,487.602081 
	C429.803009,487.206299 429.388275,486.901794 429.055328,486.531097 
	C427.135925,484.394348 424.160309,484.016541 421.978546,484.339203 
	C419.962769,484.637360 421.089691,487.717072 421.066833,489.522583 
	C420.948761,498.849182 420.902069,508.180176 421.079132,517.504883 
	C421.132812,520.332458 420.352478,521.226685 417.507446,521.058228 
	C412.545898,520.764526 406.042328,522.712097 403.006683,520.246399 
	C399.838226,517.672791 402.123108,510.907623 402.041016,505.983246 
	C401.882812,496.491211 401.994904,486.994659 401.994904,477.000000 
z"/>
<path fill="#F6F6F7" opacity="1.000000" stroke="none" 
	d="
M584.020203,510.055786 
	C583.222595,512.557678 582.503723,514.682434 581.649536,516.751221 
	C580.512329,519.505493 578.872986,521.299866 575.395203,521.074036 
	C570.763672,520.773315 566.097900,520.999817 560.817810,520.999817 
	C563.788635,513.092896 566.538086,505.517761 569.472473,498.014954 
	C577.270325,478.076782 585.182007,458.183105 592.945740,438.231781 
	C593.807861,436.016388 594.667297,434.701752 597.359924,434.936554 
	C600.498047,435.210175 603.713867,435.299316 606.831970,434.929565 
	C611.390381,434.389069 613.560303,435.983917 615.276245,440.455475 
	C625.127869,466.127899 635.543884,491.581085 645.193359,517.337524 
	C646.690735,521.334290 645.165955,521.069458 642.456238,521.013611 
	C639.461975,520.951843 636.384277,520.561584 633.488098,521.098022 
	C628.660034,521.992188 626.491211,519.406982 625.266296,515.563293 
	C624.337585,512.649353 622.553467,509.852905 622.208862,507.019104 
	C621.531006,501.445343 618.558228,500.706909 613.865295,500.919983 
	C607.056091,501.229156 600.188721,501.411652 593.410583,500.858704 
	C588.652161,500.470520 586.352844,502.280212 585.164978,506.470764 
	C584.858582,507.551331 584.417725,508.593719 584.020203,510.055786 
z"/>
<path fill="#F6F6F7" opacity="1.000000" stroke="none" 
	d="
M727.000122,507.990875 
	C727.000122,484.830536 727.098694,462.168213 726.902222,439.508453 
	C726.869873,435.767242 727.773499,434.844147 731.512329,434.901184 
	C747.005188,435.137482 762.504883,435.102295 777.999146,434.918823 
	C781.302429,434.879730 782.108032,435.811920 782.084961,439.039551 
	C782.006592,449.999115 782.140564,450.000061 771.368286,450.000061 
	C763.869995,450.000061 756.368530,450.126526 748.875122,449.936157 
	C745.991577,449.862915 744.654541,450.329773 744.922607,453.652283 
	C745.256531,457.791046 745.186707,461.988159 744.940430,466.139252 
	C744.765747,469.084656 745.416809,470.214539 748.680298,470.070984 
	C755.332520,469.778351 762.007935,470.060608 768.671326,469.953400 
	C772.468445,469.892273 774.197205,471.111389 774.093445,475.335846 
	C773.856262,484.995026 774.059204,485.000000 764.151489,485.000000 
	C758.986023,485.000000 753.815979,485.127808 748.656921,484.946686 
	C746.030273,484.854462 744.756592,485.295776 744.930420,488.368622 
	C745.202942,493.185425 745.192078,498.039246 744.931519,502.857361 
	C744.776550,505.722321 745.983826,506.068604 748.380859,506.043854 
	C758.377502,505.940521 768.377197,506.091614 778.372620,505.941498 
	C781.138000,505.899994 782.031433,506.598145 782.082336,509.512268 
	C782.283386,521.001099 782.399536,520.999084 770.996887,520.999084 
	C757.666626,520.999146 744.334717,520.886169 731.007263,521.079895 
	C727.735535,521.127441 726.610229,520.259277 726.941467,516.981873 
	C727.224915,514.177795 727.000122,511.322418 727.000122,507.990875 
z"/>
<path fill="#F6F6F7" opacity="1.000000" stroke="none" 
	d="
M650.980469,475.101807 
	C646.060364,462.685028 641.119568,450.684021 636.287292,438.639435 
	C635.220703,435.980804 636.201355,434.673340 639.257202,434.957947 
	C641.568726,435.173248 643.916443,435.000336 646.248047,435.000275 
	C655.118958,435.000061 654.845825,435.102020 658.070007,443.739929 
	C664.473145,460.894379 671.209045,477.924622 678.003723,495.514221 
	C683.132019,482.233551 688.084229,469.477020 692.980713,456.699127 
	C695.382874,450.430298 697.607117,444.092407 700.071228,437.848663 
	C700.829773,435.926666 702.349365,434.841095 704.726929,434.950348 
	C708.715515,435.133575 712.727905,435.168610 716.712952,434.950348 
	C720.244812,434.756927 720.665344,436.142548 719.497375,439.043915 
	C715.556458,448.833740 711.763672,458.683472 707.780823,468.455963 
	C700.948364,485.220642 693.905823,501.901154 687.262207,518.739563 
	C686.429199,520.850769 685.642334,521.077637 683.904602,521.017456 
	C681.742126,520.942566 679.575134,520.999146 677.410095,520.999146 
	C668.924500,520.999084 669.012329,520.964783 666.055664,513.407471 
	C661.102295,500.746613 656.024414,488.134460 650.980469,475.101807 
z"/>
<path fill="#F6F6F7" opacity="1.000000" stroke="none" 
	d="
M201.013428,470.977386 
	C209.145386,473.982056 216.171082,477.586609 218.288940,486.736053 
	C222.474396,504.817657 211.579834,521.376526 193.025360,522.088928 
	C182.123062,522.507507 172.174500,520.725586 163.142227,514.152893 
	C160.129761,511.960754 159.181870,510.157867 160.990906,506.989288 
	C162.022598,505.182251 162.745636,503.111481 164.096863,501.595551 
	C165.969437,499.494659 168.144852,498.079926 171.382660,499.759308 
	C175.912537,502.108856 180.087494,505.178680 185.082962,506.628784 
	C191.649597,508.535004 199.040771,504.622681 201.294800,498.346344 
	C203.073013,493.394958 200.195343,491.029480 196.684998,489.010162 
	C189.831512,485.067657 182.015701,483.499054 174.734604,480.570648 
	C165.380081,476.808289 161.018097,461.742889 163.817474,453.605835 
	C168.528015,439.913483 176.592590,434.165649 191.129593,433.929810 
	C198.248596,433.814362 205.074493,434.622192 211.314362,438.101318 
	C218.399094,442.051544 218.602249,443.121826 214.968536,450.322540 
	C212.314713,455.581451 208.585236,456.831787 203.983734,453.354004 
	C200.880508,451.008575 197.293823,450.109436 193.846680,449.182434 
	C189.510437,448.016327 185.257050,450.082306 182.495483,453.264465 
	C177.913086,458.544800 181.179001,463.117798 187.134598,465.910553 
	C191.463974,467.940674 196.108414,469.298920 201.013428,470.977386 
z"/>
<path fill="#F6F6F7" opacity="1.000000" stroke="none" 
	d="
M920.000000,493.079773 
	C921.455994,509.539734 907.777527,522.728210 891.489136,522.258057 
	C880.766907,521.948608 871.425415,519.558655 863.011353,513.067322 
	C862.374268,512.575867 861.469299,512.226929 861.292297,511.495209 
	C860.225342,507.083130 863.513123,504.183105 865.640198,501.222198 
	C866.786682,499.626282 869.405090,498.150146 872.515442,499.792908 
	C876.882141,502.099304 880.905273,505.079712 885.823181,506.436615 
	C892.874878,508.382263 900.062500,504.909180 902.357971,498.229279 
	C904.045837,493.317749 901.102173,491.001831 897.565796,488.982910 
	C890.991577,485.229675 883.421692,484.082245 876.561584,480.981476 
	C861.834595,474.324890 861.324280,454.439117 868.864807,444.512268 
	C877.441650,433.221100 889.325195,433.048279 901.480042,434.448181 
	C907.154419,435.101685 912.681030,437.258728 917.084656,441.481812 
	C918.769958,443.098053 919.348389,444.488678 917.948608,446.459045 
	C917.576050,446.983612 917.277100,447.566040 916.988403,448.143890 
	C912.742798,456.643494 911.911194,456.584351 903.366821,452.256256 
	C898.975220,450.031677 894.233276,447.618103 888.650085,449.889587 
	C884.675049,451.506744 881.412048,454.222107 881.352295,457.934387 
	C881.291809,461.700104 884.646301,464.413055 888.533325,466.078705 
	C895.005493,468.852081 901.911926,470.366699 908.247620,473.580505 
	C916.209412,477.619141 920.066711,483.809265 920.000000,493.079773 
z"/>
<path fill="#F6F6F7" opacity="1.000000" stroke="none" 
	d="
M357.318787,434.001282 
	C368.546417,433.291290 378.933441,434.394165 387.913422,441.050964 
	C390.155762,442.713196 394.381439,444.110535 392.395813,447.971375 
	C388.347961,455.841888 384.962799,457.328308 379.538452,455.142365 
	C375.099274,453.353333 371.145325,450.360107 366.126343,449.977600 
	C354.359039,449.080841 345.386871,454.545746 341.030151,465.838440 
	C336.761566,476.902618 338.861694,489.952576 346.243134,498.776276 
	C354.013824,508.065277 370.853577,508.666046 379.365143,501.036438 
	C383.131744,497.660156 386.054871,498.420166 389.137177,501.603546 
	C389.368652,501.842651 389.602875,502.079193 389.837036,502.315704 
	C395.644470,508.181274 395.226990,510.634857 388.096252,515.029236 
	C372.394470,524.705383 356.152832,525.042053 340.042206,516.870178 
	C328.897003,511.216919 323.117279,501.019226 321.051910,488.876129 
	C319.483826,479.656677 319.869568,470.539337 322.863617,461.487793 
	C327.649963,447.017853 337.464996,438.411163 352.121246,435.004272 
	C353.691437,434.639282 355.275604,434.334320 357.318787,434.001282 
z"/>
<path fill="#F6F6F7" opacity="1.000000" stroke="none" 
	d="
M546.673950,435.007629 
	C551.336365,436.915283 555.836060,438.204742 559.311462,441.664001 
	C560.948181,443.293091 560.858032,444.452972 560.004089,446.258484 
	C554.999268,456.839661 554.645691,456.858917 543.872070,451.486176 
	C539.888000,449.499359 535.707886,448.049622 530.890320,449.869171 
	C526.700378,451.451721 523.305359,454.225098 523.358765,458.182770 
	C523.408630,461.884918 526.699829,464.735291 530.800110,466.098480 
	C537.015808,468.164978 543.247009,470.330658 549.170593,473.098358 
	C560.183655,478.244049 564.672241,488.986267 561.717834,500.855957 
	C558.413574,514.131287 547.291931,522.471069 533.589050,522.166138 
	C523.695496,521.945923 514.731689,520.164368 506.787018,514.032349 
	C503.813873,511.737488 502.778961,509.474640 505.225647,506.224701 
	C506.280029,504.824188 507.009979,503.181274 508.046875,501.765381 
	C509.876892,499.266602 512.125488,498.260895 515.114197,499.998505 
	C519.267395,502.413177 523.260437,505.122803 527.957703,506.513550 
	C534.784790,508.534851 542.237427,504.717224 544.443604,498.114502 
	C546.005798,493.438995 543.084106,491.146027 539.891541,489.030304 
	C534.462952,485.432617 527.972046,484.415955 522.002380,482.196106 
	C508.960114,477.346405 505.362213,465.373566 507.371277,454.359863 
	C509.697540,441.607239 521.427307,433.230988 534.065125,433.967560 
	C538.138733,434.204987 542.267883,433.654480 546.673950,435.007629 
z"/>
<path fill="#F6F6F7" opacity="1.000000" stroke="none" 
	d="
M470.001526,574.999573 
	C465.169342,574.999573 460.827301,574.824646 456.507812,575.061401 
	C453.663605,575.217407 452.925659,574.302368 452.924011,571.487000 
	C452.919037,562.999878 452.784302,562.999939 461.027161,562.999939 
	C515.516113,562.999939 570.005066,562.987854 624.493958,563.053223 
	C626.297424,563.055359 629.286743,561.865723 629.750671,564.055969 
	C630.452393,567.369446 630.176758,571.024475 629.589783,574.408264 
	C629.364624,575.706238 626.895081,574.966614 625.469727,574.968506 
	C594.642700,575.009277 563.815613,574.999573 532.988525,574.999573 
	C512.159424,574.999573 491.330322,574.999573 470.001526,574.999573 
z"/>
<path fill="#F6F6F7" opacity="1.000000" stroke="none" 
	d="
M230.401428,520.589294 
	C230.042496,493.089050 230.074478,465.933380 229.925461,438.778748 
	C229.908630,435.709656 230.628113,434.666565 233.762909,434.932709 
	C237.236481,435.227631 240.774231,435.230560 244.247162,434.931885 
	C247.385178,434.662018 248.097366,435.703156 248.075912,438.770752 
	C247.930298,459.594849 248.110733,480.421600 247.901245,501.244568 
	C247.861908,505.154999 248.853897,506.241089 252.764603,506.098755 
	C261.416382,505.783844 270.089539,506.104248 278.749603,505.938873 
	C281.390839,505.888428 282.018433,506.684631 282.070190,509.268646 
	C282.305298,521.001160 282.395935,521.007751 270.721191,520.997131 
	C257.393768,520.984985 244.066315,520.955933 230.401428,520.589294 
z"/>
<path fill="#F6F6F7" opacity="1.000000" stroke="none" 
	d="
M308.997925,442.068207 
	C308.997955,467.219635 308.898895,491.878662 309.101715,516.535217 
	C309.133240,520.365906 308.108795,521.405457 304.438721,521.069885 
	C300.162842,520.678894 294.351440,522.478821 291.923248,520.299988 
	C289.094391,517.761780 291.058929,511.862396 291.041260,507.433289 
	C290.950897,484.774719 291.107544,462.114624 290.894806,439.457703 
	C290.858673,435.613800 291.914978,434.480072 295.567169,434.945496 
	C297.862396,435.238007 300.225281,434.999969 302.557800,435.000061 
	C308.998169,435.000275 308.998169,435.000244 308.997925,442.068207 
z"/>
<path fill="#F6F6F7" opacity="1.000000" stroke="none" 
	d="
M349.105469,644.420471 
	C344.618591,644.977905 340.891541,647.470337 336.455566,647.081543 
	C332.168518,646.705750 327.822723,647.000122 323.036804,647.000122 
	C325.637787,634.347107 328.922699,622.083130 330.406830,609.605042 
	C331.167358,603.210754 334.135132,603.783447 338.278717,603.975159 
	C341.104645,604.105896 343.965607,604.239380 346.769196,603.957397 
	C357.234375,602.904541 364.768036,612.527771 363.378143,624.090271 
	C362.185150,634.014648 357.156311,639.628662 349.105469,644.420471 
z"/>
<path fill="#F6F6F7" opacity="1.000000" stroke="none" 
	d="
M731.401978,661.872070 
	C726.711243,661.726685 722.234741,663.584290 718.247559,660.091797 
	C714.787476,657.060913 716.012207,653.860474 716.994385,650.475342 
	C717.890747,647.386108 720.310669,649.513794 721.964661,649.130310 
	C722.773865,648.942749 723.989075,649.486267 723.351257,651.302490 
	C722.675110,653.228210 722.096741,655.768066 724.777771,656.891052 
	C727.684753,658.108704 730.020142,655.931641 731.105591,654.084412 
	C732.625793,651.497131 734.208374,648.504700 733.726685,644.698608 
	C730.672913,646.400574 728.171448,648.219910 724.611023,648.146362 
	C719.994019,648.051086 717.689453,645.305542 717.156799,641.781067 
	C715.047180,627.821533 726.716125,611.537964 744.046936,616.889404 
	C745.798706,617.430359 746.416504,618.091736 745.960449,619.428101 
	C742.407043,629.839172 741.925476,640.881592 739.290649,651.492004 
	C738.123413,656.192444 735.332825,659.095764 731.401978,661.872070 
z"/>
<path fill="#F6F6F7" opacity="1.000000" stroke="none" 
	d="
M554.993286,644.478394 
	C553.936401,642.339417 553.570312,644.193115 553.028625,644.530090 
	C551.013855,645.783813 549.455566,647.766296 546.830505,648.014832 
	C540.270142,648.636047 535.001892,643.412292 536.072083,636.700378 
	C537.481628,627.859558 540.960815,620.234924 550.256897,616.911377 
	C550.850037,616.699280 551.353394,616.202393 551.952698,616.047302 
	C554.238403,615.455627 557.449524,617.427490 558.779480,615.031494 
	C560.455750,612.011597 561.728882,608.368469 561.805359,604.963440 
	C561.896240,600.907654 563.786743,600.918152 566.727356,600.930420 
	C568.962036,600.939575 569.542603,602.143005 568.914185,603.658875 
	C567.511475,607.042847 567.986145,610.664429 567.096863,614.132935 
	C564.869812,622.819214 563.146484,631.634216 561.188354,640.390320 
	C560.961243,641.405945 561.077881,642.216858 561.581604,643.170471 
	C562.933533,645.729919 561.837646,646.698914 559.178162,647.495056 
	C556.288330,648.360229 555.103516,647.807068 554.993286,644.478394 
z"/>
<path fill="#F6F6F7" opacity="1.000000" stroke="none" 
	d="
M596.260620,618.610535 
	C599.680603,621.159485 602.971680,623.257080 606.044312,625.636719 
	C612.294739,630.477356 611.113586,641.771240 604.058411,645.467102 
	C597.435059,648.936768 591.181213,649.319641 584.226379,645.376038 
	C580.820190,643.444641 582.160889,642.376282 582.908997,640.304626 
	C583.953064,637.413147 584.923584,638.252930 587.164246,639.452698 
	C590.855469,641.428955 594.856018,643.179749 599.288635,640.070679 
	C602.693787,637.682190 603.748901,634.267212 600.638245,631.239990 
	C598.463440,629.123474 595.763306,627.534729 593.245728,625.785156 
	C588.652100,622.592712 586.650879,617.335571 588.008545,611.828491 
	C589.079834,607.483398 593.838928,603.325378 598.920654,603.097961 
	C603.139526,602.909180 607.359619,602.928955 611.660034,603.784790 
	C615.161255,604.481506 614.095337,606.546448 613.849915,608.034485 
	C613.587036,609.628174 613.264771,611.463501 610.032288,610.298462 
	C607.186768,609.272888 603.739441,608.574707 600.155090,609.837585 
	C595.188354,611.587646 594.042419,613.114502 596.260620,618.610535 
z"/>
<path fill="#F6F6F7" opacity="1.000000" stroke="none" 
	d="
M486.615356,617.120728 
	C488.071960,616.675049 489.126312,616.085388 490.196350,616.055481 
	C493.956085,615.950256 498.188263,615.054565 501.291504,617.163696 
	C505.373260,619.937927 500.839233,623.489380 500.821991,626.791199 
	C500.789948,632.934265 496.544128,638.691101 498.931335,645.202454 
	C499.635376,647.122803 497.549988,647.359070 496.601105,647.648743 
	C495.079254,648.113403 492.874268,649.075745 492.015106,646.764648 
	C490.920624,643.820435 489.298431,644.002136 487.699738,645.882690 
	C484.886688,649.191711 481.124634,648.690552 478.215576,647.414917 
	C475.288818,646.131592 473.954590,642.910828 473.912415,639.187439 
	C473.801453,629.392395 478.491028,622.515991 486.615356,617.120728 
z"/>
<path fill="#F6F6F7" opacity="1.000000" stroke="none" 
	d="
M408.830566,643.696594 
	C402.150299,650.183411 395.893005,649.005188 393.042694,644.461731 
	C390.794373,640.878052 391.130096,636.324585 392.271179,632.996887 
	C396.582672,620.423767 404.402161,613.036621 419.602386,617.005371 
	C421.594788,617.525513 420.563416,618.296692 420.309479,619.428345 
	C418.942047,625.523010 418.394257,631.780945 416.215210,637.726807 
	C415.569244,639.489502 415.363861,642.011536 416.155853,643.580078 
	C417.857422,646.950195 415.878113,647.437561 413.551422,647.983215 
	C410.209808,648.766846 409.573273,646.946472 409.973969,644.166321 
	C410.064331,643.539246 409.641968,643.386719 408.830566,643.696594 
z"/>
<path fill="#F6F6F7" opacity="1.000000" stroke="none" 
	d="
M626.617798,617.186890 
	C630.950317,615.897827 634.753296,616.024292 638.912781,616.709351 
	C643.145630,617.406372 642.080505,619.393311 641.638062,621.737793 
	C640.294922,628.853943 637.836365,635.808472 638.078796,643.149963 
	C638.169678,645.904297 637.353638,647.338379 634.699951,648.005554 
	C630.868652,648.968994 632.650452,645.220825 631.343689,643.892883 
	C628.008911,645.528381 625.572571,648.617615 621.285034,648.110413 
	C616.889526,647.590454 614.334900,645.150940 613.953552,640.512268 
	C613.096741,630.089600 617.413391,622.550293 626.617798,617.186890 
z"/>
<path fill="#F6F6F7" opacity="1.000000" stroke="none" 
	d="
M692.998840,639.901855 
	C691.359375,642.595764 693.524414,647.515686 687.916138,647.103760 
	C685.467834,646.924011 684.369324,646.191956 685.047424,643.963745 
	C687.534363,635.791565 688.480286,627.277222 690.760681,619.038757 
	C691.725159,615.554138 694.184631,617.457336 695.712708,616.343140 
	C697.255859,615.217896 696.854797,617.572144 696.988586,618.499146 
	C697.365112,621.106934 699.087524,618.966187 699.320129,618.843323 
	C702.346985,617.245361 705.232910,615.405701 708.921143,615.989624 
	C711.877258,616.457581 713.783508,618.140991 713.932617,621.065735 
	C714.114685,624.635925 714.672424,628.387817 712.935547,631.723877 
	C710.840271,635.748474 710.920959,640.231140 710.197327,644.467773 
	C709.415100,649.047791 706.456604,646.777893 704.619385,646.849121 
	C701.871155,646.955627 702.869995,644.587097 703.394592,643.270325 
	C705.511902,637.955811 704.581360,632.020020 706.909912,626.742065 
	C707.316528,625.820435 707.206116,624.131409 706.601196,623.421936 
	C705.537720,622.174438 704.259277,623.440247 703.154541,623.987122 
	C696.746521,627.158752 693.560486,632.456787 692.998840,639.901855 
z"/>
<path fill="#F6F6F7" opacity="1.000000" stroke="none" 
	d="
M506.029968,635.265747 
	C507.412659,630.516479 508.865387,626.234070 509.021698,621.636353 
	C509.133423,618.350464 513.359741,615.126953 516.188232,616.046143 
	C516.337585,616.094604 516.579041,616.169250 516.597656,616.266174 
	C518.021362,623.688538 521.184875,617.104736 522.640076,616.579895 
	C528.870667,614.333252 532.865295,616.680176 533.024475,623.236389 
	C533.212708,630.988464 530.639771,638.229553 528.829834,645.567993 
	C528.054016,648.713623 524.612732,646.232422 522.004822,647.320435 
	C523.548706,640.546326 524.844421,634.356567 526.424194,628.240295 
	C526.892273,626.428162 527.789246,624.222229 526.347412,623.228943 
	C524.721313,622.108643 522.519592,623.361816 520.974060,624.597839 
	C515.497498,628.977661 512.070801,634.499634 512.017456,641.727844 
	C512.001648,643.872620 512.017761,646.142578 509.605011,646.932434 
	C505.634399,648.232300 504.246948,646.654663 504.937317,642.414185 
	C505.300812,640.181458 506.646637,638.088074 506.029968,635.265747 
z"/>
<path fill="#F6F6F7" opacity="1.000000" stroke="none" 
	d="
M376.141846,617.977295 
	C380.029419,615.211365 386.177063,615.290405 388.556732,618.086243 
	C391.134125,621.114380 390.220062,626.782898 386.623016,629.866638 
	C382.492645,633.407654 377.417786,634.903198 372.318878,636.316223 
	C374.398773,642.579529 375.238251,642.760010 381.657043,640.228516 
	C382.918945,639.730835 385.359009,637.429993 386.675751,640.355957 
	C387.683960,642.596313 387.080994,644.397644 384.669159,645.972473 
	C380.234161,648.868347 375.680939,648.847717 371.217743,646.966675 
	C366.717010,645.069824 365.949738,641.002441 365.894928,636.350952 
	C365.799469,628.257568 368.785309,622.156799 376.141846,617.977295 
z"/>
<path fill="#F6F6F7" opacity="1.000000" stroke="none" 
	d="
M647.022949,631.713257 
	C647.508789,627.460083 645.752441,623.908875 645.884521,620.064575 
	C645.985046,617.137878 647.080627,616.877502 649.381836,616.959290 
	C651.433228,617.032227 653.162781,616.657654 653.089172,619.862366 
	C652.966919,625.189941 654.012634,630.445435 655.348816,636.361206 
	C659.322266,631.307617 661.676086,625.896362 663.818970,620.565552 
	C665.083008,617.421021 666.613220,616.886414 669.481689,616.943420 
	C673.293030,617.019226 672.671326,618.376709 671.488342,621.087463 
	C667.820251,629.492188 662.459229,636.910278 658.208618,644.937073 
	C656.252136,648.631653 653.767151,648.241150 651.114380,647.877686 
	C647.986694,647.449219 649.063416,644.583618 649.033508,642.603882 
	C648.979004,638.990234 648.129456,635.562378 647.022949,631.713257 
z"/>
<path fill="#F6F6F7" opacity="1.000000" stroke="none" 
	d="
M758.505066,615.996399 
	C761.237976,616.095276 763.638245,615.825317 765.823059,616.389648 
	C768.980957,617.205383 769.301697,619.232117 768.133240,622.365417 
	C766.687561,626.241821 764.635986,623.328552 763.668091,622.799866 
	C761.109558,621.401978 759.235229,621.734131 757.650757,623.906616 
	C755.682495,626.605469 758.174133,627.727783 759.781311,628.937439 
	C762.422913,630.925720 764.888184,633.180420 765.906067,636.291016 
	C767.193298,640.224426 764.425781,645.005371 760.067932,647.401855 
	C757.495544,648.816467 747.995422,647.879639 746.505005,645.858948 
	C745.435608,644.409058 746.127869,642.925354 746.862793,641.305908 
	C747.737976,639.377625 748.700745,639.954468 749.947876,640.450378 
	C751.279297,640.979797 752.387390,641.920410 753.953430,642.052917 
	C756.030640,642.228638 757.768311,641.550781 758.489319,639.808289 
	C759.174194,638.153015 758.070984,636.949768 756.537476,635.740540 
	C753.770508,633.558655 750.698364,631.332336 750.029541,627.467102 
	C749.077209,621.963013 750.720825,619.705811 758.505066,615.996399 
z"/>
<path fill="#F6F6F7" opacity="1.000000" stroke="none" 
	d="
M440.544647,631.027161 
	C438.686554,626.454407 438.010071,621.955750 441.915070,618.734375 
	C445.943054,615.411560 450.785034,615.299316 455.791107,616.974121 
	C460.098145,618.414917 456.924103,621.185913 456.754517,622.965210 
	C456.556183,625.046326 454.619904,623.961243 453.404327,623.054504 
	C453.289459,622.968872 453.041656,623.066650 452.919922,622.984192 
	C450.442261,621.307007 448.136993,621.527954 446.540619,624.063354 
	C444.665161,627.042114 447.600861,628.699707 449.235840,629.476624 
	C453.674591,631.585999 453.728149,635.053894 454.184387,639.199219 
	C454.781860,644.627441 451.077240,646.329285 447.702179,647.566406 
	C443.683014,649.039734 439.145660,648.441650 435.540039,645.744202 
	C434.189148,644.733521 435.167969,642.850769 435.883026,641.244995 
	C436.773254,639.245911 437.850800,639.912903 438.999969,640.519775 
	C440.750488,641.444336 442.462006,642.351868 444.546021,641.994995 
	C446.366608,641.683228 447.547882,640.561279 447.933533,638.865051 
	C448.271698,637.377563 447.165436,636.728027 445.956970,635.918640 
	C444.065796,634.651794 442.529907,632.854553 440.544647,631.027161 
z"/>
<path fill="#F6F6F7" opacity="1.000000" stroke="none" 
	d="
M424.985840,634.632568 
	C425.673218,624.989319 428.784058,616.268921 430.441467,607.256653 
	C430.676422,605.979065 430.996216,604.710999 430.983429,603.418701 
	C430.939087,598.934326 434.286163,601.374939 436.045441,601.100281 
	C438.952545,600.646423 438.090942,603.026001 437.805328,604.437805 
	C435.259155,617.024475 432.704254,629.611145 429.915131,642.145081 
	C429.517822,643.930420 430.345184,647.059265 426.674774,647.026733 
	C423.478333,646.998413 420.352417,647.583191 422.715454,642.392578 
	C423.724274,640.176697 423.892090,637.427734 424.985840,634.632568 
z"/>
<path fill="#F6F6F7" opacity="1.000000" stroke="none" 
	d="
M676.195923,618.489319 
	C677.962219,616.258545 680.094849,617.057800 681.987061,617.104431 
	C682.836792,617.125366 683.869202,617.382385 683.410339,619.287903 
	C681.383118,627.706055 679.576904,636.189880 678.080444,644.718384 
	C677.294922,649.195190 674.135315,646.797852 672.370544,646.779541 
	C669.930603,646.754150 671.215088,644.530029 671.439819,643.031372 
	C672.655640,634.922424 675.589722,627.140747 676.195923,618.489319 
z"/>
<path fill="#F6F6F7" opacity="1.000000" stroke="none" 
	d="
M679.000427,607.902405 
	C678.474670,604.258972 680.284363,603.080933 683.082581,603.035400 
	C685.395508,602.997681 686.740295,604.452209 686.959351,606.630432 
	C687.258667,609.606934 685.069519,611.201721 682.762573,611.878540 
	C680.204712,612.628906 678.725891,611.149597 679.000427,607.902405 
z"/>
<path fill="#000000" opacity="1.000000" stroke="none" 
	d="
M827.353088,450.124115 
	C831.753479,452.415833 835.572144,454.389648 836.107300,459.951813 
	C837.033447,469.578430 829.289124,473.892456 820.632629,474.924438 
	C812.048218,475.947815 812.016296,475.680573 812.016357,467.174683 
	C812.016357,462.027679 812.119141,456.877655 811.968506,451.735046 
	C811.903992,449.533722 812.649597,449.090790 814.765137,448.907928 
	C818.935791,448.547424 822.845520,450.233917 827.353088,450.124115 
z"/>
<path fill="#000000" opacity="1.000000" stroke="none" 
	d="
M594.744324,481.663086 
	C596.927490,473.031006 600.954285,465.469788 603.682495,456.171112 
	C607.603699,466.972229 611.195557,476.866211 614.875000,487.001251 
	C608.796448,487.001251 603.140991,487.009460 597.485535,486.998810 
	C592.211060,486.988892 592.211060,486.980103 594.744324,481.663086 
z"/>
<path fill="#000000" opacity="1.000000" stroke="none" 
	d="
M354.273071,629.294067 
	C353.085754,634.373901 349.404419,636.731995 345.585907,638.741638 
	C342.344818,640.447388 335.775574,641.092896 331.458801,640.719910 
	C332.972168,632.072449 334.475708,623.413635 336.008423,614.760010 
	C336.538971,611.764526 337.283844,609.752930 341.414886,609.812256 
	C347.700867,609.902527 352.818665,610.781067 355.749573,617.210205 
	C357.735962,621.567505 357.220673,625.297729 354.273071,629.294067 
z"/>
<path fill="#000000" opacity="1.000000" stroke="none" 
	d="
M733.915039,622.536499 
	C737.978394,621.029907 738.754272,623.349426 737.882812,626.034058 
	C736.194031,631.236938 734.133972,636.361816 729.570740,639.917480 
	C728.310974,640.899109 726.708008,642.528137 725.468933,641.624084 
	C724.237488,640.725586 723.541504,638.621399 724.011963,636.719177 
	C725.456238,630.878845 727.522034,625.449768 733.915039,622.536499 
z"/>
<path fill="#000000" opacity="1.000000" stroke="none" 
	d="
M555.990723,631.614990 
	C553.410950,635.094177 551.640869,638.877502 547.987305,641.010498 
	C545.876404,642.242859 544.445435,642.458191 543.967712,639.361633 
	C542.933533,632.657043 545.440857,626.814392 551.313477,623.319153 
	C552.929688,622.357239 554.734680,621.218384 556.789429,622.352844 
	C559.374573,623.780334 556.759644,625.470886 556.904541,627.053040 
	C557.028015,628.401978 556.332275,629.825928 555.990723,631.614990 
z"/>
<path fill="#000000" opacity="1.000000" stroke="none" 
	d="
M482.600830,630.901855 
	C484.205261,628.309692 485.194183,625.909729 487.855408,624.469666 
	C489.973694,623.323486 492.052948,620.926697 494.205139,622.446411 
	C495.138336,623.105347 494.573914,626.682434 493.900055,628.665771 
	C492.108704,633.937927 488.933472,638.261047 484.162598,641.412781 
	C482.003357,642.839355 482.130768,640.958191 481.596008,640.068542 
	C479.727356,636.959778 482.353821,634.167603 482.600830,630.901855 
z"/>
<path fill="#000000" opacity="1.000000" stroke="none" 
	d="
M411.957214,622.030273 
	C412.534271,629.947449 409.324890,636.251648 403.111359,640.953064 
	C400.021240,643.291138 399.391846,640.617737 399.034454,638.384583 
	C397.976593,631.773621 404.278717,623.597107 411.957214,622.030273 
z"/>
<path fill="#000000" opacity="1.000000" stroke="none" 
	d="
M633.063049,629.035034 
	C631.643250,634.446777 628.744690,638.253357 624.405090,641.156311 
	C622.118835,642.685608 621.480896,641.463013 621.031128,639.700134 
	C619.697876,634.474854 625.558472,623.823364 630.782593,622.156250 
	C631.934265,621.788757 633.619568,621.826599 634.572449,622.437134 
	C635.661072,623.134888 634.790161,624.406860 634.226318,625.464111 
	C633.711243,626.429932 634.120117,627.784302 633.063049,629.035034 
z"/>
<path fill="#000000" opacity="1.000000" stroke="none" 
	d="
M376.683167,625.812866 
	C378.355804,624.139648 379.648041,622.481873 381.875458,622.523254 
	C382.243500,622.530090 383.018616,623.698608 382.885559,623.951782 
	C381.836060,625.948364 380.602142,627.850952 378.001495,628.013123 
	C377.005646,628.075256 376.100647,629.950317 375.134857,628.444702 
	C374.503723,627.460754 375.842712,626.807129 376.683167,625.812866 
z"/>
</svg>