<svg version="1.1" id="Layer_1" xmlns="http://www.w3.org/2000/svg" xmlns:xlink="http://www.w3.org/1999/xlink" x="0px" y="0px"
	 width="100%" viewBox="0 0 934 350" enable-background="new 0 0 934 350" xml:space="preserve">
<path fill="#E69B6E" opacity="1.000000" stroke="none" 
	d="
M605.000000,351.000000 
	C403.333344,351.000000 202.166672,351.000000 1.000000,351.000000 
	C1.000000,234.333328 1.000000,117.666664 1.000000,1.000000 
	C312.333344,1.000000 623.666687,1.000000 935.000000,1.000000 
	C935.000000,117.666664 935.000000,234.333328 935.000000,351.000000 
	C825.166687,351.000000 715.333313,351.000000 605.000000,351.000000 
M753.559082,127.705872 
	C759.318420,126.698967 762.791199,129.422165 765.675293,134.232162 
	C770.377441,142.074066 775.496826,149.676849 780.709656,157.193665 
	C782.032288,159.100952 784.236023,161.357529 786.271362,161.619995 
	C791.241272,162.260910 796.349548,161.829041 802.408569,161.829041 
	C793.428406,148.691513 785.043762,136.425293 776.614319,124.093506 
	C776.855591,123.895226 777.190552,123.492905 777.619751,123.285614 
	C790.160339,117.228561 795.646912,108.018875 794.107422,95.568604 
	C792.703369,84.213593 785.998413,76.981712 771.799561,75.169197 
	C759.689819,73.623375 747.275269,74.462395 734.994995,74.278984 
	C734.744263,74.275238 734.487549,74.669388 734.258057,74.857834 
	C734.258057,103.758873 734.258057,132.635147 734.258057,161.692719 
	C739.582214,161.692719 744.487976,161.692719 750.010132,161.692719 
	C750.010132,159.614243 750.009949,157.833740 750.010193,156.053238 
	C750.011230,148.061356 749.881226,140.065353 750.131714,132.081268 
	C750.177856,130.610092 751.763977,129.187195 753.559082,127.705872 
M395.383240,158.061661 
	C384.564056,143.563858 373.744873,129.066071 362.913147,114.551445 
	C373.309479,101.771996 384.219177,88.361526 395.905121,73.996872 
	C391.302704,73.996872 388.276733,74.296021 385.332245,73.933395 
	C379.543823,73.220535 375.627991,75.506493 372.197876,80.111061 
	C365.433472,89.191498 358.178925,97.905258 351.220062,106.843071 
	C348.306000,110.585815 344.767059,111.588631 339.757263,110.164047 
	C339.757263,98.122757 339.757263,86.222145 339.757263,74.407364 
	C334.063507,74.407364 329.006561,74.407364 323.856293,74.407364 
	C323.856293,103.728943 323.856293,132.638046 323.856293,161.635529 
	C329.358765,161.635529 334.432953,161.635529 340.079529,161.635529 
	C340.079529,148.702728 340.079529,136.119553 340.079529,123.649727 
	C347.954559,122.336670 349.636719,122.928719 353.939972,128.514130 
	C361.259766,138.014771 368.449829,147.617294 375.901367,157.012863 
	C377.465393,158.984894 379.776184,161.308151 382.001801,161.619705 
	C386.954193,162.312973 392.070404,161.836029 397.717010,161.836029 
	C396.805084,160.288986 396.311981,159.452530 395.383240,158.061661 
M554.425293,146.067612 
	C555.807434,149.806992 556.791748,153.770248 558.722656,157.200760 
	C559.858887,159.219528 562.318176,161.316025 564.500977,161.741043 
	C568.287170,162.478271 572.320679,161.945801 576.830139,161.945801 
	C575.931702,159.418976 575.324524,157.545944 574.606323,155.716492 
	C565.371277,132.192657 556.103943,108.681519 546.880676,85.153091 
	C542.450378,73.851662 542.483826,73.976738 530.096680,73.905731 
	C526.674744,73.886108 525.150513,75.057793 523.942505,78.173454 
	C513.603577,104.839088 503.091888,131.437744 492.658234,158.066757 
	C492.214630,159.198944 492.030212,160.432693 491.627838,161.997238 
	C495.306396,161.997238 498.461700,161.931870 501.613251,162.013000 
	C506.018188,162.126389 508.799042,160.288483 510.114014,155.928650 
	C511.361023,151.794312 513.197937,147.838364 514.455811,143.706665 
	C515.340515,140.800812 516.949280,139.890884 519.910461,139.945572 
	C528.901917,140.111572 537.910095,140.276382 546.887878,139.888138 
	C551.271973,139.698547 553.376831,141.304977 554.425293,146.067612 
M719.002319,79.559006 
	C718.907898,77.806671 718.813538,76.054337 718.722534,74.364914 
	C700.220581,74.364914 682.324158,74.364914 664.406738,74.364914 
	C664.406738,103.727806 664.406738,132.720337 664.406738,161.597794 
	C682.802551,161.597794 700.696716,161.597794 718.646606,161.597794 
	C718.646606,157.287491 718.646606,153.384705 718.646606,148.897812 
	C705.739380,148.897812 693.174561,148.897812 680.470459,148.897812 
	C680.470459,140.290451 680.470459,132.283722 680.470459,123.722069 
	C690.842651,123.722069 700.747864,123.722069 710.682129,123.722069 
	C710.682129,119.398453 710.682129,115.644669 710.682129,111.056030 
	C700.364624,111.056030 690.344604,111.056030 680.356079,111.056030 
	C680.356079,102.636169 680.356079,95.061615 680.356079,86.911858 
	C693.267578,86.911858 705.836121,86.911858 719.002380,86.911858 
	C719.002380,84.387268 719.002380,82.440163 719.002319,79.559006 
M625.390991,104.858070 
	C620.839722,116.918915 616.288452,128.979767 611.642456,141.291641 
	C611.297424,140.587570 611.052734,140.174973 610.884888,139.733170 
	C603.266907,119.685059 595.753113,99.596092 587.907898,79.637367 
	C587.025085,77.391418 584.513489,74.731033 582.336182,74.275627 
	C578.235962,73.418015 573.828735,74.028229 568.869934,74.028229 
	C569.928528,76.812630 570.704468,78.969193 571.562439,81.092598 
	C581.280640,105.143784 591.010620,129.190201 600.739197,153.237198 
	C604.299133,162.036392 604.308289,161.811661 613.700256,162.106232 
	C617.696716,162.231567 619.520325,160.905991 620.979980,157.222916 
	C631.334351,131.095276 641.926270,105.061783 652.433167,78.994522 
	C653.016052,77.548294 653.515076,76.068207 654.277039,73.994522 
	C650.432678,73.994522 647.414612,74.291519 644.477478,73.930595 
	C638.942871,73.250481 636.286987,75.940712 634.575317,80.842400 
	C631.835754,88.687866 628.682251,96.388763 625.390991,104.858070 
M448.972992,75.285461 
	C437.771606,80.885262 432.314209,89.495514 433.161926,100.616249 
	C434.038666,112.118065 441.144836,118.365265 451.447754,121.816826 
	C456.640747,123.556534 461.917236,125.110016 466.960114,127.216576 
	C471.711182,129.201263 474.097351,132.928070 473.397797,138.365799 
	C472.612732,144.468246 468.894958,148.160172 462.781921,149.046936 
	C454.823822,150.201324 448.088684,147.467636 441.768433,143.029282 
	C437.708160,140.178009 435.149323,142.005112 432.871002,145.726044 
	C430.737305,149.210785 428.881805,151.934311 433.804108,155.004929 
	C443.642639,161.142426 453.908142,164.184952 465.566254,162.164612 
	C478.426086,159.936005 487.723969,150.446167 488.950134,137.781525 
	C490.188019,124.995804 485.000092,117.284775 471.577515,112.123642 
	C465.998962,109.978600 460.279053,108.179970 454.784210,105.845398 
	C450.668762,104.096901 448.059784,100.961609 448.635834,96.057671 
	C449.239410,90.919319 452.340851,88.152405 457.170593,86.880157 
	C463.966461,85.089996 470.033081,87.014145 475.706329,90.532684 
	C479.418121,92.834747 481.998505,92.597023 484.225555,88.477333 
	C487.759613,81.939941 487.935059,81.591553 482.797852,78.561760 
	C472.335114,72.391167 461.273285,71.197647 448.972992,75.285461 
M811.229614,110.078987 
	C814.154053,115.780746 819.147644,118.931412 824.925964,121.029839 
	C830.701233,123.127167 836.648743,124.799767 842.292480,127.196106 
	C847.916504,129.584091 849.829956,133.611588 848.922485,139.202087 
	C848.068115,144.464798 843.948059,148.307327 838.411865,149.005722 
	C831.909363,149.826004 825.915771,148.610336 820.300476,145.059296 
	C812.156799,139.909271 811.509583,140.158173 806.646545,148.559250 
	C806.155518,149.407486 805.740417,150.299622 805.119324,151.501862 
	C815.302979,160.371109 826.774536,164.305161 840.138184,162.211380 
	C853.118103,160.177689 862.760315,151.001480 863.998596,139.540268 
	C865.618225,124.547607 860.941589,117.390854 845.778748,111.697205 
	C840.647888,109.770569 835.423889,108.066490 830.389038,105.917252 
	C825.849731,103.979553 823.160339,100.541847 824.081421,95.268097 
	C824.930481,90.406303 828.183350,87.925194 832.801025,86.819099 
	C839.800964,85.142349 845.916687,87.284866 851.754333,90.921814 
	C855.108337,93.011436 857.781311,92.368225 859.462158,88.673149 
	C860.922424,85.463081 864.520386,82.429893 859.189514,79.074203 
	C851.060852,73.957207 842.263550,72.282921 832.925903,73.096100 
	C814.326172,74.715889 803.833435,92.124977 811.229614,110.078987 
M294.508026,89.801910 
	C304.167084,95.237587 305.594391,94.738594 310.475006,84.219742 
	C295.969604,68.418671 265.352081,69.208221 249.722443,85.786407 
	C232.465683,104.090454 234.195908,137.901154 253.199020,153.722549 
	C270.090637,167.786026 299.972900,165.487869 311.896973,148.898590 
	C310.770355,147.622238 309.466339,146.360275 308.416077,144.914062 
	C305.457458,140.839966 302.749084,140.757385 298.549927,143.902145 
	C283.173340,155.417709 261.223206,147.722229 256.250214,129.145325 
	C255.068130,124.729546 254.866226,119.928223 254.950058,115.317627 
	C255.354660,93.064049 273.078857,81.341255 294.508026,89.801910 
M111.841072,144.123032 
	C105.324814,150.812607 95.453667,151.171585 85.351387,145.086411 
	C76.938889,140.019073 76.548607,140.111557 71.596931,148.442795 
	C71.095230,149.286911 70.660469,150.170822 69.979507,151.435944 
	C81.552567,161.440933 94.513092,165.321457 109.310562,161.342636 
	C120.825569,158.246429 128.590866,148.566223 129.014008,137.681732 
	C129.559799,123.642387 125.306526,117.322754 111.765366,112.061440 
	C110.834595,111.699806 109.894875,111.361053 108.957466,111.016701 
	C104.438057,109.356529 99.846649,107.866684 95.417946,105.992332 
	C90.855003,104.061172 88.253349,100.690216 89.025589,95.393936 
	C89.754463,90.395119 93.048996,88.032928 97.595398,86.860268 
	C104.585823,85.057228 110.726578,87.192764 116.541458,90.869736 
	C120.233810,93.204559 122.747505,92.035530 124.586319,88.351547 
	C126.256355,85.005714 129.064301,82.019661 123.800598,78.853401 
	C115.573921,73.904839 106.792671,72.217438 97.468590,73.147888 
	C84.896057,74.402496 75.196114,83.453331 73.950195,94.667473 
	C72.401657,108.605293 77.595024,116.702049 91.351433,121.607132 
	C95.887657,123.224609 100.575592,124.435265 105.057503,126.182480 
	C113.954857,129.651001 115.918243,134.597504 111.841072,144.123032 
M459.500000,205.995743 
	C431.766174,205.995743 404.032379,205.995743 376.421967,205.995743 
	C376.421967,210.471909 376.421967,214.043381 376.421967,218.080688 
	C378.983429,218.080688 381.121796,218.080704 383.260193,218.080704 
	C438.904419,218.080719 494.548645,218.080734 550.192871,218.080719 
	C560.690674,218.080704 560.693848,218.080338 559.789856,207.402710 
	C559.765259,207.112000 559.491699,206.842377 559.014709,205.995743 
	C526.382202,205.995743 493.441101,205.995743 459.500000,205.995743 
M161.820694,148.089828 
	C161.217484,146.404465 160.099014,144.722046 160.089340,143.033295 
	C159.969269,122.054039 160.010452,101.073875 160.010162,80.093941 
	C160.010132,78.179924 160.010162,76.265900 160.010162,74.346741 
	C154.226761,74.346741 149.313354,74.346741 144.306503,74.346741 
	C144.306503,103.686630 144.306503,132.673737 144.306503,161.638275 
	C161.386734,161.638275 177.954987,161.638275 194.600403,161.638275 
	C194.600403,157.078629 194.600403,152.885910 194.600403,148.181366 
	C183.688858,148.181366 173.226151,148.181366 161.820694,148.089828 
M223.176895,119.500015 
	C223.176895,104.451782 223.176895,89.403549 223.176895,74.350098 
	C217.316162,74.350098 212.410217,74.350098 207.418716,74.350098 
	C207.418716,103.684601 207.418716,132.667862 207.418716,161.646118 
	C212.775665,161.646118 217.686264,161.646118 223.177155,161.646118 
	C223.177155,147.700012 223.177155,134.100021 223.176895,119.500015 
M279.032623,278.370941 
	C279.394867,277.446289 279.801727,276.536316 280.112701,275.594727 
	C284.586517,262.049774 278.745056,251.923599 264.834747,249.625046 
	C260.773804,248.954010 256.539917,249.007614 252.415054,249.245453 
	C251.205780,249.315170 249.341827,250.993195 249.067047,252.222305 
	C247.152145,260.787567 245.586823,269.430725 243.887894,278.044617 
	C242.886093,283.124023 241.844757,288.195618 240.712189,293.811249 
	C256.227539,294.166046 270.216400,293.662140 279.032623,278.370941 
M677.873779,282.440918 
	C678.528381,279.359955 679.178406,276.277985 679.838379,273.198181 
	C681.939331,263.394135 680.720642,262.009186 670.562500,263.059509 
	C668.792480,263.242554 666.986206,263.855286 665.372620,264.634186 
	C658.518127,267.943146 652.364441,278.077789 653.310608,285.562744 
	C653.667969,288.390289 655.352905,292.342865 657.528931,293.306091 
	C660.004822,294.402008 663.752869,292.920013 666.853027,292.167603 
	C668.142029,291.854736 669.185547,290.530304 670.340637,289.665833 
	C670.651978,293.691040 670.187012,297.395355 668.936096,300.811981 
	C667.426575,304.935120 663.592224,306.140869 659.941528,304.720459 
	C658.257935,304.065460 657.592285,300.793976 656.465149,298.708832 
	C653.915894,296.373505 652.709290,298.905640 652.165039,301.614014 
	C651.342346,305.708221 653.959656,307.829742 657.445618,308.810181 
	C665.339294,311.030304 672.338257,307.350433 674.632446,299.338837 
	C676.126282,294.122253 676.687561,288.638611 677.873779,282.440918 
M483.509094,262.985840 
	C472.015869,263.491180 462.532959,274.804352 464.079712,286.165283 
	C465.040131,293.219727 470.495911,296.307800 476.706482,293.125214 
	C478.801605,292.051605 480.594421,290.388000 482.736847,288.841400 
	C483.216156,292.850311 484.172607,295.673645 487.124146,293.621887 
	C490.445282,277.055878 493.496918,261.834198 496.625763,246.227386 
	C494.423950,246.730240 492.993958,247.056824 491.396759,247.421585 
	C490.522064,251.532898 489.596405,255.553162 488.830475,259.603638 
	C488.343628,262.178375 487.016235,263.385315 483.509094,262.985840 
M529.798279,268.720184 
	C528.989197,268.138794 528.176331,267.562439 527.371643,266.975067 
	C524.375122,264.787903 522.450012,261.547638 524.440796,258.433014 
	C525.861816,256.209717 529.206787,254.828247 531.971985,253.979462 
	C534.038269,253.345230 536.703674,253.706085 538.830566,254.426254 
	C543.201477,255.906265 543.215088,253.547073 543.000488,249.842117 
	C539.386047,249.407196 535.809143,248.559464 532.252319,248.636688 
	C525.107178,248.791794 519.567749,252.911102 518.183472,258.472168 
	C516.895752,263.645416 519.264954,268.058258 525.575623,272.422333 
	C527.484863,273.742645 529.755981,274.891632 531.014160,276.706390 
	C532.385437,278.684235 533.937134,281.754578 533.286987,283.601013 
	C532.513916,285.796600 529.555115,288.533875 527.410034,288.653961 
	C523.316772,288.883087 519.128967,287.423859 514.980591,286.664398 
	C514.529480,286.581848 514.079773,286.492340 513.390808,286.360352 
	C512.988464,287.842621 512.615051,289.218201 512.007446,291.456726 
	C515.568542,292.379700 518.816895,293.765106 522.140381,293.978058 
	C531.040894,294.548248 537.047363,291.194305 538.851013,285.283417 
	C540.801514,278.891266 538.613647,274.670166 529.798279,268.720184 
M564.577209,262.986237 
	C552.505798,261.888336 543.265503,277.492798 545.232666,288.113983 
	C545.981995,292.159943 548.562012,294.966339 552.953857,293.954895 
	C556.353516,293.171967 559.501404,291.295471 562.134033,290.172607 
	C563.487061,291.373779 564.927490,293.709381 566.314636,293.678192 
	C569.918640,293.597015 568.376770,290.440186 568.583801,288.334290 
	C568.809937,286.034149 569.143677,283.735748 569.589600,281.467865 
	C570.695007,275.845825 571.891174,270.241608 573.177246,264.018585 
	C570.263000,263.628662 567.864441,263.307709 564.577209,262.986237 
M312.890839,284.492737 
	C312.782715,288.091705 312.850708,292.004791 316.661255,293.529877 
	C322.236420,295.761200 326.502075,292.561615 330.589478,288.270447 
	C330.791534,289.453583 330.716125,290.156921 331.022980,290.588409 
	C331.850525,291.751984 332.841003,292.799683 333.766785,293.893402 
	C334.534180,292.612976 335.621490,291.418427 335.993530,290.031921 
	C336.543823,287.981140 336.466064,285.771118 336.867035,283.669220 
	C338.096100,277.226379 339.425812,270.802795 340.700775,264.449463 
	C326.278564,259.530365 314.160126,268.117645 312.890839,284.492737 
M399.493408,279.367035 
	C399.323792,282.011169 398.910065,284.667114 399.037354,287.296875 
	C399.274658,292.199127 402.010895,294.848694 406.857086,293.897614 
	C410.342651,293.213623 413.515686,290.937134 416.796814,289.385773 
	C416.813599,289.480042 416.742859,290.093018 417.014709,290.427460 
	C417.987091,291.623627 419.075653,292.725433 420.120300,293.862915 
	C420.761047,292.477356 421.609741,291.145660 421.986389,289.691650 
	C422.395844,288.111053 422.229279,286.389313 422.552338,284.776886 
	C423.909576,278.003174 425.356049,271.247375 426.754120,264.560120 
	C414.182983,259.898315 404.322571,265.187897 399.493408,279.367035 
M458.725128,266.283997 
	C452.058746,258.364441 446.920959,265.682373 441.082764,268.378601 
	C441.082764,266.492371 441.082764,264.975464 441.082764,262.317535 
	C438.912964,263.922363 436.518005,264.751648 436.188049,266.089996 
	C433.979858,275.046844 432.211609,284.112183 430.298737,293.150940 
	C435.158264,294.017303 435.163727,294.018585 436.080048,290.132416 
	C436.688416,287.552216 437.439941,284.992645 437.844086,282.380035 
	C438.788361,276.276459 442.555786,272.235748 447.517334,269.223053 
	C448.885834,268.392120 451.322388,267.936310 452.503357,268.623688 
	C453.427185,269.161438 453.627533,271.811798 453.354187,273.385345 
	C452.200378,280.027679 450.748810,286.618256 449.052643,294.967804 
	C451.846039,293.534760 454.439880,292.997040 454.650299,291.970734 
	C456.338501,283.736084 457.576782,275.409180 458.725128,266.283997 
M626.627686,285.188690 
	C627.190918,277.960236 631.167297,272.859222 637.015381,269.117310 
	C638.250488,268.327026 640.482910,267.877686 641.594788,268.483795 
	C642.547180,269.002960 642.713989,271.236328 642.918274,272.753265 
	C643.042969,273.679199 642.578003,274.683380 642.384033,275.653625 
	C641.206787,281.541382 640.031189,287.429504 638.855103,293.317505 
	C639.427795,293.690338 640.000488,294.063171 640.573120,294.436005 
	C641.832397,293.300415 643.869324,292.363983 644.219727,290.995636 
	C645.981812,284.115753 647.482178,277.154541 648.715149,270.158600 
	C649.498962,265.711029 646.571228,262.525909 642.057739,263.129578 
	C639.247803,263.505463 636.613892,265.204132 633.903809,266.316101 
	C633.164124,266.619598 632.434814,266.948364 631.514099,267.346222 
	C631.119019,265.897156 630.793274,264.702545 630.498108,263.619934 
	C626.700439,263.383270 625.444275,265.146484 624.853638,268.539185 
	C623.420654,276.770721 621.499573,284.917267 619.769348,293.125641 
	C623.051819,294.349579 624.905579,294.153656 625.324219,290.823425 
	C625.529663,289.188782 626.004639,287.587982 626.627686,285.188690 
M288.636261,271.251251 
	C287.430328,275.492462 285.565094,279.679382 285.210236,283.990631 
	C284.878204,288.024719 286.769745,292.046814 291.103302,293.447296 
	C295.844177,294.979431 300.691528,294.560486 304.795929,291.442749 
	C305.664734,290.782776 305.543335,288.819214 306.085205,286.613831 
	C302.545685,287.958160 300.033569,289.756195 297.685425,289.562805 
	C295.412933,289.375641 292.440887,287.630310 291.340179,285.684570 
	C289.789612,282.943634 292.235779,281.776062 294.916290,280.681335 
	C299.128326,278.961090 303.384003,276.805725 306.777100,273.861755 
	C308.362946,272.485840 309.005981,268.412262 308.160522,266.344818 
	C307.459442,264.630585 304.011566,263.332092 301.672394,263.135284 
	C295.930817,262.652222 292.234192,266.416870 288.636261,271.251251 
M584.847412,265.936615 
	C583.199585,265.174622 581.551758,264.412598 578.687134,263.087891 
	C580.028320,273.512970 581.026733,282.052917 582.329285,290.546234 
	C582.521484,291.799652 584.113220,293.712738 585.127258,293.758087 
	C586.599487,293.823914 588.687622,292.857605 589.542297,291.646423 
	C592.307678,287.727478 594.755981,283.565887 597.089722,279.366241 
	C599.768494,274.545746 602.194336,269.584778 604.779480,264.589172 
	C600.454407,262.986786 598.977905,264.603455 597.550781,267.661316 
	C594.659546,273.856537 591.224304,279.797882 588.013367,285.843903 
	C587.459839,285.715942 586.906311,285.587982 586.352722,285.460022 
	C585.879089,279.247345 585.405396,273.034668 584.847412,265.936615 
M700.270752,262.989288 
	C699.437988,262.988831 698.604736,262.969971 697.772522,262.990906 
	C693.128479,263.107697 689.661194,265.189636 688.300293,269.668457 
	C687.022522,273.873444 689.096191,277.060150 692.462463,279.515198 
	C693.268250,280.102844 694.381409,280.577637 694.758545,281.382904 
	C695.661926,283.311615 697.361450,286.412231 696.656921,287.217224 
	C695.322998,288.741577 692.568542,289.401855 690.325378,289.623596 
	C688.719727,289.782349 686.985657,288.641632 685.308838,288.080719 
	C684.866394,288.434357 684.423889,288.787994 683.981384,289.141632 
	C684.831299,290.515350 685.396301,292.651062 686.592529,293.098267 
	C688.828125,293.933990 691.431274,294.016205 693.879333,294.002991 
	C698.173645,293.979858 701.100220,291.719757 702.455505,287.666779 
	C703.804016,283.634003 702.059448,280.558655 699.043335,278.007812 
	C697.647095,276.826996 695.938049,275.890045 694.891541,274.461151 
	C694.034790,273.291260 693.235352,271.239105 693.715454,270.156830 
	C694.239258,268.976105 696.212402,267.922943 697.648926,267.781708 
	C699.877441,267.562683 702.186523,268.163055 704.679321,268.440277 
	C705.077942,267.267914 705.485718,266.068542 706.032043,264.461700 
	C704.205383,263.922302 702.657410,263.465179 700.270752,262.989288 
M376.139252,288.395721 
	C378.643311,282.281891 374.296814,279.412506 370.605164,275.942932 
	C369.072479,274.502411 368.599304,271.934631 367.644318,269.879486 
	C369.873810,269.185333 372.065277,268.259094 374.347229,267.885071 
	C375.692780,267.664520 377.181793,268.319214 378.779633,268.612061 
	C379.149963,267.129456 379.456390,265.902679 379.958679,263.891785 
	C376.654083,263.570160 373.738312,262.952728 370.857117,263.085388 
	C366.700897,263.276825 363.527740,265.460175 362.303528,269.560944 
	C361.116486,273.537109 362.839539,276.684326 365.968292,279.157562 
	C367.011200,279.981964 368.437256,280.601318 369.010956,281.675903 
	C369.938721,283.413727 371.364349,286.203064 370.664948,287.186401 
	C369.591461,288.695679 366.937347,289.562408 364.872009,289.738251 
	C363.091827,289.889771 361.197144,288.695892 359.402161,288.112762 
	C357.025269,290.996887 358.149902,292.441132 360.895599,293.479584 
	C366.406860,295.563934 372.131531,293.937286 376.139252,288.395721 
M351.628174,259.035828 
	C349.192566,270.445526 346.756958,281.855255 344.265106,293.528381 
	C347.675934,294.097229 349.495117,294.054657 350.155029,290.419983 
	C351.895355,280.834381 354.101868,271.333466 356.121399,261.798553 
	C357.168182,256.856445 358.212006,251.913727 359.257141,246.971283 
	C358.632050,246.610245 358.006927,246.249191 357.381805,245.888153 
	C355.990509,247.559189 354.151764,249.037048 353.325073,250.951859 
	C352.365845,253.173676 352.295105,255.779068 351.628174,259.035828 
M609.353455,272.844299 
	C607.948547,279.601501 606.543579,286.358673 605.126709,293.173462 
	C608.478394,294.595001 610.307007,293.889679 610.992188,290.316040 
	C612.202515,284.003204 613.679810,277.742035 614.957458,271.441437 
	C615.429077,269.115967 615.652588,266.740143 615.969543,264.524597 
	C612.508423,263.236237 610.961487,264.097809 610.641541,267.204315 
	C610.473389,268.836548 609.979614,270.435242 609.353455,272.844299 
M618.643005,249.746872 
	C616.948608,250.177505 614.977966,250.235916 613.679199,251.199692 
	C613.053040,251.664383 613.256653,254.112427 613.909973,255.134995 
	C614.353455,255.829117 617.100281,256.094574 617.317200,255.708664 
	C618.223450,254.096649 618.562500,252.165833 618.643005,249.746872 
z"/>
<path fill="#F6F5F6" opacity="1.000000" stroke="none" 
	d="
M753.099243,127.723938 
	C751.763977,129.187195 750.177856,130.610092 750.131714,132.081268 
	C749.881226,140.065353 750.011230,148.061356 750.010193,156.053238 
	C750.009949,157.833740 750.010132,159.614243 750.010132,161.692719 
	C744.487976,161.692719 739.582214,161.692719 734.258057,161.692719 
	C734.258057,132.635147 734.258057,103.758873 734.258057,74.857834 
	C734.487549,74.669388 734.744263,74.275238 734.994995,74.278984 
	C747.275269,74.462395 759.689819,73.623375 771.799561,75.169197 
	C785.998413,76.981712 792.703369,84.213593 794.107422,95.568604 
	C795.646912,108.018875 790.160339,117.228561 777.619751,123.285614 
	C777.190552,123.492905 776.855591,123.895226 776.614319,124.093506 
	C785.043762,136.425293 793.428406,148.691513 802.408569,161.829041 
	C796.349548,161.829041 791.241272,162.260910 786.271362,161.619995 
	C784.236023,161.357529 782.032288,159.100952 780.709656,157.193665 
	C775.496826,149.676849 770.377441,142.074066 765.675293,134.232162 
	C762.791199,129.422165 759.318420,126.698967 753.099243,127.723938 
M773.493530,89.908417 
	C766.253845,85.366089 758.358521,86.277718 750.335938,86.616028 
	C750.335938,96.535240 750.335938,105.927162 750.335938,116.276123 
	C755.940369,115.828415 761.207764,115.714134 766.367981,114.911369 
	C771.800903,114.066200 776.168640,111.031921 777.559021,105.532227 
	C778.926331,100.123390 779.025879,94.560234 773.493530,89.908417 
z"/>
<path fill="#F6F5F6" opacity="1.000000" stroke="none" 
	d="
M395.601074,158.338867 
	C396.311981,159.452530 396.805084,160.288986 397.717010,161.836029 
	C392.070404,161.836029 386.954193,162.312973 382.001801,161.619705 
	C379.776184,161.308151 377.465393,158.984894 375.901367,157.012863 
	C368.449829,147.617294 361.259766,138.014771 353.939972,128.514130 
	C349.636719,122.928719 347.954559,122.336670 340.079529,123.649727 
	C340.079529,136.119553 340.079529,148.702728 340.079529,161.635529 
	C334.432953,161.635529 329.358765,161.635529 323.856293,161.635529 
	C323.856293,132.638046 323.856293,103.728943 323.856293,74.407364 
	C329.006561,74.407364 334.063507,74.407364 339.757263,74.407364 
	C339.757263,86.222145 339.757263,98.122757 339.757263,110.164047 
	C344.767059,111.588631 348.306000,110.585815 351.220062,106.843071 
	C358.178925,97.905258 365.433472,89.191498 372.197876,80.111061 
	C375.627991,75.506493 379.543823,73.220535 385.332245,73.933395 
	C388.276733,74.296021 391.302704,73.996872 395.905121,73.996872 
	C384.219177,88.361526 373.309479,101.771996 362.913147,114.551445 
	C373.744873,129.066071 384.564056,143.563858 395.601074,158.338867 
z"/>
<path fill="#F6F5F6" opacity="1.000000" stroke="none" 
	d="
M554.278687,145.700500 
	C553.376831,141.304977 551.271973,139.698547 546.887878,139.888138 
	C537.910095,140.276382 528.901917,140.111572 519.910461,139.945572 
	C516.949280,139.890884 515.340515,140.800812 514.455811,143.706665 
	C513.197937,147.838364 511.361023,151.794312 510.114014,155.928650 
	C508.799042,160.288483 506.018188,162.126389 501.613251,162.013000 
	C498.461700,161.931870 495.306396,161.997238 491.627838,161.997238 
	C492.030212,160.432693 492.214630,159.198944 492.658234,158.066757 
	C503.091888,131.437744 513.603577,104.839088 523.942505,78.173454 
	C525.150513,75.057793 526.674744,73.886108 530.096680,73.905731 
	C542.483826,73.976738 542.450378,73.851662 546.880676,85.153091 
	C556.103943,108.681519 565.371277,132.192657 574.606323,155.716492 
	C575.324524,157.545944 575.931702,159.418976 576.830139,161.945801 
	C572.320679,161.945801 568.287170,162.478271 564.500977,161.741043 
	C562.318176,161.316025 559.858887,159.219528 558.722656,157.200760 
	C556.791748,153.770248 555.807434,149.806992 554.278687,145.700500 
M541.050049,109.393311 
	C538.828613,103.349884 536.607239,97.306458 533.995667,90.201706 
	C529.138550,103.703606 524.758972,115.878227 520.272522,128.349701 
	C529.953003,128.349701 538.631226,128.349701 547.988647,128.349701 
	C545.610718,121.877731 543.453186,116.005730 541.050049,109.393311 
z"/>
<path fill="#F6F5F6" opacity="1.000000" stroke="none" 
	d="
M719.002319,80.026031 
	C719.002380,82.440163 719.002380,84.387268 719.002380,86.911858 
	C705.836121,86.911858 693.267578,86.911858 680.356079,86.911858 
	C680.356079,95.061615 680.356079,102.636169 680.356079,111.056030 
	C690.344604,111.056030 700.364624,111.056030 710.682129,111.056030 
	C710.682129,115.644669 710.682129,119.398453 710.682129,123.722069 
	C700.747864,123.722069 690.842651,123.722069 680.470459,123.722069 
	C680.470459,132.283722 680.470459,140.290451 680.470459,148.897812 
	C693.174561,148.897812 705.739380,148.897812 718.646606,148.897812 
	C718.646606,153.384705 718.646606,157.287491 718.646606,161.597794 
	C700.696716,161.597794 682.802551,161.597794 664.406738,161.597794 
	C664.406738,132.720337 664.406738,103.727806 664.406738,74.364914 
	C682.324158,74.364914 700.220581,74.364914 718.722534,74.364914 
	C718.813538,76.054337 718.907898,77.806671 719.002319,80.026031 
z"/>
<path fill="#F6F5F5" opacity="1.000000" stroke="none" 
	d="
M625.547363,104.504425 
	C628.682251,96.388763 631.835754,88.687866 634.575317,80.842400 
	C636.286987,75.940712 638.942871,73.250481 644.477478,73.930595 
	C647.414612,74.291519 650.432678,73.994522 654.277039,73.994522 
	C653.515076,76.068207 653.016052,77.548294 652.433167,78.994522 
	C641.926270,105.061783 631.334351,131.095276 620.979980,157.222916 
	C619.520325,160.905991 617.696716,162.231567 613.700256,162.106232 
	C604.308289,161.811661 604.299133,162.036392 600.739197,153.237198 
	C591.010620,129.190201 581.280640,105.143784 571.562439,81.092598 
	C570.704468,78.969193 569.928528,76.812630 568.869934,74.028229 
	C573.828735,74.028229 578.235962,73.418015 582.336182,74.275627 
	C584.513489,74.731033 587.025085,77.391418 587.907898,79.637367 
	C595.753113,99.596092 603.266907,119.685059 610.884888,139.733170 
	C611.052734,140.174973 611.297424,140.587570 611.642456,141.291641 
	C616.288452,128.979767 620.839722,116.918915 625.547363,104.504425 
z"/>
<path fill="#F6F5F5" opacity="1.000000" stroke="none" 
	d="
M449.340393,75.152992 
	C461.273285,71.197647 472.335114,72.391167 482.797852,78.561760 
	C487.935059,81.591553 487.759613,81.939941 484.225555,88.477333 
	C481.998505,92.597023 479.418121,92.834747 475.706329,90.532684 
	C470.033081,87.014145 463.966461,85.089996 457.170593,86.880157 
	C452.340851,88.152405 449.239410,90.919319 448.635834,96.057671 
	C448.059784,100.961609 450.668762,104.096901 454.784210,105.845398 
	C460.279053,108.179970 465.998962,109.978600 471.577515,112.123642 
	C485.000092,117.284775 490.188019,124.995804 488.950134,137.781525 
	C487.723969,150.446167 478.426086,159.936005 465.566254,162.164612 
	C453.908142,164.184952 443.642639,161.142426 433.804108,155.004929 
	C428.881805,151.934311 430.737305,149.210785 432.871002,145.726044 
	C435.149323,142.005112 437.708160,140.178009 441.768433,143.029282 
	C448.088684,147.467636 454.823822,150.201324 462.781921,149.046936 
	C468.894958,148.160172 472.612732,144.468246 473.397797,138.365799 
	C474.097351,132.928070 471.711182,129.201263 466.960114,127.216576 
	C461.917236,125.110016 456.640747,123.556534 451.447754,121.816826 
	C441.144836,118.365265 434.038666,112.118065 433.161926,100.616249 
	C432.314209,89.495514 437.771606,80.885262 449.340393,75.152992 
z"/>
<path fill="#F6F5F5" opacity="1.000000" stroke="none" 
	d="
M811.069092,109.736511 
	C803.833435,92.124977 814.326172,74.715889 832.925903,73.096100 
	C842.263550,72.282921 851.060852,73.957207 859.189514,79.074203 
	C864.520386,82.429893 860.922424,85.463081 859.462158,88.673149 
	C857.781311,92.368225 855.108337,93.011436 851.754333,90.921814 
	C845.916687,87.284866 839.800964,85.142349 832.801025,86.819099 
	C828.183350,87.925194 824.930481,90.406303 824.081421,95.268097 
	C823.160339,100.541847 825.849731,103.979553 830.389038,105.917252 
	C835.423889,108.066490 840.647888,109.770569 845.778748,111.697205 
	C860.941589,117.390854 865.618225,124.547607 863.998596,139.540268 
	C862.760315,151.001480 853.118103,160.177689 840.138184,162.211380 
	C826.774536,164.305161 815.302979,160.371109 805.119324,151.501862 
	C805.740417,150.299622 806.155518,149.407486 806.646545,148.559250 
	C811.509583,140.158173 812.156799,139.909271 820.300476,145.059296 
	C825.915771,148.610336 831.909363,149.826004 838.411865,149.005722 
	C843.948059,148.307327 848.068115,144.464798 848.922485,139.202087 
	C849.829956,133.611588 847.916504,129.584091 842.292480,127.196106 
	C836.648743,124.799767 830.701233,123.127167 824.925964,121.029839 
	C819.147644,118.931412 814.154053,115.780746 811.069092,109.736511 
z"/>
<path fill="#F6F5F5" opacity="1.000000" stroke="none" 
	d="
M294.175659,89.605911 
	C273.078857,81.341255 255.354660,93.064049 254.950058,115.317627 
	C254.866226,119.928223 255.068130,124.729546 256.250214,129.145325 
	C261.223206,147.722229 283.173340,155.417709 298.549927,143.902145 
	C302.749084,140.757385 305.457458,140.839966 308.416077,144.914062 
	C309.466339,146.360275 310.770355,147.622238 311.896973,148.898590 
	C299.972900,165.487869 270.090637,167.786026 253.199020,153.722549 
	C234.195908,137.901154 232.465683,104.090454 249.722443,85.786407 
	C265.352081,69.208221 295.969604,68.418671 310.475006,84.219742 
	C305.594391,94.738594 304.167084,95.237587 294.175659,89.605911 
z"/>
<path fill="#F6F5F5" opacity="1.000000" stroke="none" 
	d="
M112.034081,143.786011 
	C115.918243,134.597504 113.954857,129.651001 105.057503,126.182480 
	C100.575592,124.435265 95.887657,123.224609 91.351433,121.607132 
	C77.595024,116.702049 72.401657,108.605293 73.950195,94.667473 
	C75.196114,83.453331 84.896057,74.402496 97.468590,73.147888 
	C106.792671,72.217438 115.573921,73.904839 123.800598,78.853401 
	C129.064301,82.019661 126.256355,85.005714 124.586319,88.351547 
	C122.747505,92.035530 120.233810,93.204559 116.541458,90.869736 
	C110.726578,87.192764 104.585823,85.057228 97.595398,86.860268 
	C93.048996,88.032928 89.754463,90.395119 89.025589,95.393936 
	C88.253349,100.690216 90.855003,104.061172 95.417946,105.992332 
	C99.846649,107.866684 104.438057,109.356529 108.957466,111.016701 
	C109.894875,111.361053 110.834595,111.699806 111.765366,112.061440 
	C125.306526,117.322754 129.559799,123.642387 129.014008,137.681732 
	C128.590866,148.566223 120.825569,158.246429 109.310562,161.342636 
	C94.513092,165.321457 81.552567,161.440933 69.979507,151.435944 
	C70.660469,150.170822 71.095230,149.286911 71.596931,148.442795 
	C76.548607,140.111557 76.938889,140.019073 85.351387,145.086411 
	C95.453667,151.171585 105.324814,150.812607 112.034081,143.786011 
z"/>
<path fill="#F6F5F6" opacity="1.000000" stroke="none" 
	d="
M460.000000,205.995743 
	C493.441101,205.995743 526.382202,205.995743 559.014709,205.995743 
	C559.491699,206.842377 559.765259,207.112000 559.789856,207.402710 
	C560.693848,218.080338 560.690674,218.080704 550.192871,218.080719 
	C494.548645,218.080734 438.904419,218.080719 383.260193,218.080704 
	C381.121796,218.080704 378.983429,218.080688 376.421967,218.080688 
	C376.421967,214.043381 376.421967,210.471909 376.421967,205.995743 
	C404.032379,205.995743 431.766174,205.995743 460.000000,205.995743 
z"/>
<path fill="#F6F5F6" opacity="1.000000" stroke="none" 
	d="
M162.292068,148.135590 
	C173.226151,148.181366 183.688858,148.181366 194.600403,148.181366 
	C194.600403,152.885910 194.600403,157.078629 194.600403,161.638275 
	C177.954987,161.638275 161.386734,161.638275 144.306503,161.638275 
	C144.306503,132.673737 144.306503,103.686630 144.306503,74.346741 
	C149.313354,74.346741 154.226761,74.346741 160.010162,74.346741 
	C160.010162,76.265900 160.010132,78.179924 160.010162,80.093941 
	C160.010452,101.073875 159.969269,122.054039 160.089340,143.033295 
	C160.099014,144.722046 161.217484,146.404465 162.292068,148.135590 
z"/>
<path fill="#F6F6F7" opacity="1.000000" stroke="none" 
	d="
M223.177032,120.000015 
	C223.177155,134.100021 223.177155,147.700012 223.177155,161.646118 
	C217.686264,161.646118 212.775665,161.646118 207.418716,161.646118 
	C207.418716,132.667862 207.418716,103.684601 207.418716,74.350098 
	C212.410217,74.350098 217.316162,74.350098 223.176895,74.350098 
	C223.176895,89.403549 223.176895,104.451782 223.177032,120.000015 
z"/>
<path fill="#F5F3F3" opacity="1.000000" stroke="none" 
	d="
M278.879883,278.715698 
	C270.216400,293.662140 256.227539,294.166046 240.712189,293.811249 
	C241.844757,288.195618 242.886093,283.124023 243.887894,278.044617 
	C245.586823,269.430725 247.152145,260.787567 249.067047,252.222305 
	C249.341827,250.993195 251.205780,249.315170 252.415054,249.245453 
	C256.539917,249.007614 260.773804,248.954010 264.834747,249.625046 
	C278.745056,251.923599 284.586517,262.049774 280.112701,275.594727 
	C279.801727,276.536316 279.394867,277.446289 278.879883,278.715698 
M275.164459,271.609924 
	C277.994720,257.980377 267.627136,252.580307 255.691803,254.200058 
	C254.789352,254.322525 253.587387,255.839630 253.374084,256.882233 
	C251.224457,267.388977 249.252304,277.932068 247.227417,288.479797 
	C261.452423,290.527039 271.848602,284.415131 275.164459,271.609924 
z"/>
<path fill="#F5F3F3" opacity="1.000000" stroke="none" 
	d="
M677.770264,282.857788 
	C676.687561,288.638611 676.126282,294.122253 674.632446,299.338837 
	C672.338257,307.350433 665.339294,311.030304 657.445618,308.810181 
	C653.959656,307.829742 651.342346,305.708221 652.165039,301.614014 
	C652.709290,298.905640 653.915894,296.373505 656.465149,298.708832 
	C657.592285,300.793976 658.257935,304.065460 659.941528,304.720459 
	C663.592224,306.140869 667.426575,304.935120 668.936096,300.811981 
	C670.187012,297.395355 670.651978,293.691040 670.340637,289.665833 
	C669.185547,290.530304 668.142029,291.854736 666.853027,292.167603 
	C663.752869,292.920013 660.004822,294.402008 657.528931,293.306091 
	C655.352905,292.342865 653.667969,288.390289 653.310608,285.562744 
	C652.364441,278.077789 658.518127,267.943146 665.372620,264.634186 
	C666.986206,263.855286 668.792480,263.242554 670.562500,263.059509 
	C680.720642,262.009186 681.939331,263.394135 679.838379,273.198181 
	C679.178406,276.277985 678.528381,279.359955 677.770264,282.857788 
M663.526794,272.082123 
	C662.032043,275.553558 660.046814,278.914734 659.232056,282.539001 
	C658.766052,284.612061 660.204529,287.113220 660.785522,289.421661 
	C662.932861,288.523895 665.486450,288.093323 667.153687,286.643463 
	C672.859253,281.681671 674.874451,274.987305 675.257141,267.419220 
	C670.429138,266.360077 667.017639,268.370697 663.526794,272.082123 
z"/>
<path fill="#F5F3F3" opacity="1.000000" stroke="none" 
	d="
M483.939636,262.984558 
	C487.016235,263.385315 488.343628,262.178375 488.830475,259.603638 
	C489.596405,255.553162 490.522064,251.532898 491.396759,247.421585 
	C492.993958,247.056824 494.423950,246.730240 496.625763,246.227386 
	C493.496918,261.834198 490.445282,277.055878 487.124146,293.621887 
	C484.172607,295.673645 483.216156,292.850311 482.736847,288.841400 
	C480.594421,290.388000 478.801605,292.051605 476.706482,293.125214 
	C470.495911,296.307800 465.040131,293.219727 464.079712,286.165283 
	C462.532959,274.804352 472.015869,263.491180 483.939636,262.984558 
M482.637665,282.003937 
	C483.783905,278.590179 485.096863,275.221436 486.033447,271.751068 
	C487.158813,267.580994 484.829773,266.704010 481.329620,267.458221 
	C473.431671,269.160126 467.518890,279.445465 470.186096,286.937622 
	C471.091034,289.479645 472.941223,291.034180 475.494354,289.069275 
	C477.940613,287.186615 479.982391,284.778442 482.637665,282.003937 
z"/>
<path fill="#F5F3F3" opacity="1.000000" stroke="none" 
	d="
M530.119507,268.888824 
	C538.613647,274.670166 540.801514,278.891266 538.851013,285.283417 
	C537.047363,291.194305 531.040894,294.548248 522.140381,293.978058 
	C518.816895,293.765106 515.568542,292.379700 512.007446,291.456726 
	C512.615051,289.218201 512.988464,287.842621 513.390808,286.360352 
	C514.079773,286.492340 514.529480,286.581848 514.980591,286.664398 
	C519.128967,287.423859 523.316772,288.883087 527.410034,288.653961 
	C529.555115,288.533875 532.513916,285.796600 533.286987,283.601013 
	C533.937134,281.754578 532.385437,278.684235 531.014160,276.706390 
	C529.755981,274.891632 527.484863,273.742645 525.575623,272.422333 
	C519.264954,268.058258 516.895752,263.645416 518.183472,258.472168 
	C519.567749,252.911102 525.107178,248.791794 532.252319,248.636688 
	C535.809143,248.559464 539.386047,249.407196 543.000488,249.842117 
	C543.215088,253.547073 543.201477,255.906265 538.830566,254.426254 
	C536.703674,253.706085 534.038269,253.345230 531.971985,253.979462 
	C529.206787,254.828247 525.861816,256.209717 524.440796,258.433014 
	C522.450012,261.547638 524.375122,264.787903 527.371643,266.975067 
	C528.176331,267.562439 528.989197,268.138794 530.119507,268.888824 
z"/>
<path fill="#F5F3F3" opacity="1.000000" stroke="none" 
	d="
M565.021484,262.986511 
	C567.864441,263.307709 570.263000,263.628662 573.177246,264.018585 
	C571.891174,270.241608 570.695007,275.845825 569.589600,281.467865 
	C569.143677,283.735748 568.809937,286.034149 568.583801,288.334290 
	C568.376770,290.440186 569.918640,293.597015 566.314636,293.678192 
	C564.927490,293.709381 563.487061,291.373779 562.134033,290.172607 
	C559.501404,291.295471 556.353516,293.171967 552.953857,293.954895 
	C548.562012,294.966339 545.981995,292.159943 545.232666,288.113983 
	C543.265503,277.492798 552.505798,261.888336 565.021484,262.986511 
M565.935608,267.548157 
	C557.557373,266.640076 549.966248,275.644257 550.873169,285.588043 
	C550.997192,286.947632 551.655334,289.098145 552.518738,289.353729 
	C553.810120,289.735931 555.839233,289.187531 556.969604,288.294525 
	C563.459167,283.167725 566.756409,276.405792 565.935608,267.548157 
z"/>
<path fill="#F5F3F3" opacity="1.000000" stroke="none" 
	d="
M312.900024,284.051880 
	C314.160126,268.117645 326.278564,259.530365 340.700775,264.449463 
	C339.425812,270.802795 338.096100,277.226379 336.867035,283.669220 
	C336.466064,285.771118 336.543823,287.981140 335.993530,290.031921 
	C335.621490,291.418427 334.534180,292.612976 333.766785,293.893402 
	C332.841003,292.799683 331.850525,291.751984 331.022980,290.588409 
	C330.716125,290.156921 330.791534,289.453583 330.589478,288.270447 
	C326.502075,292.561615 322.236420,295.761200 316.661255,293.529877 
	C312.850708,292.004791 312.782715,288.091705 312.900024,284.051880 
M329.686432,283.082947 
	C331.622681,278.271759 333.558929,273.460602 335.515320,268.599365 
	C330.386261,265.844086 326.666718,267.597290 324.420502,270.565979 
	C321.711548,274.146271 319.776459,278.514221 318.429810,282.829376 
	C317.845673,284.701263 319.567902,287.292908 320.242523,289.557648 
	C322.274628,288.727203 324.434021,288.108551 326.293457,286.990845 
	C327.507996,286.260773 328.287354,284.806732 329.686432,283.082947 
z"/>
<path fill="#F5F3F3" opacity="1.000000" stroke="none" 
	d="
M399.662292,278.987061 
	C404.322571,265.187897 414.182983,259.898315 426.754120,264.560120 
	C425.356049,271.247375 423.909576,278.003174 422.552338,284.776886 
	C422.229279,286.389313 422.395844,288.111053 421.986389,289.691650 
	C421.609741,291.145660 420.761047,292.477356 420.120300,293.862915 
	C419.075653,292.725433 417.987091,291.623627 417.014709,290.427460 
	C416.742859,290.093018 416.813599,289.480042 416.796814,289.385773 
	C413.515686,290.937134 410.342651,293.213623 406.857086,293.897614 
	C402.010895,294.848694 399.274658,292.199127 399.037354,287.296875 
	C398.910065,284.667114 399.323792,282.011169 399.662292,278.987061 
M410.125854,288.747467 
	C417.215820,283.762054 419.811279,276.500397 420.703888,267.656189 
	C418.995239,267.533905 417.376465,267.080139 415.904999,267.371124 
	C409.460938,268.645660 402.502747,279.823425 404.204437,286.200165 
	C404.876465,288.718353 406.055634,291.154663 410.125854,288.747467 
z"/>
<path fill="#F5F3F2" opacity="1.000000" stroke="none" 
	d="
M458.838928,266.697266 
	C457.576782,275.409180 456.338501,283.736084 454.650299,291.970734 
	C454.439880,292.997040 451.846039,293.534760 449.052643,294.967804 
	C450.748810,286.618256 452.200378,280.027679 453.354187,273.385345 
	C453.627533,271.811798 453.427185,269.161438 452.503357,268.623688 
	C451.322388,267.936310 448.885834,268.392120 447.517334,269.223053 
	C442.555786,272.235748 438.788361,276.276459 437.844086,282.380035 
	C437.439941,284.992645 436.688416,287.552216 436.080048,290.132416 
	C435.163727,294.018585 435.158264,294.017303 430.298737,293.150940 
	C432.211609,284.112183 433.979858,275.046844 436.188049,266.089996 
	C436.518005,264.751648 438.912964,263.922363 441.082764,262.317535 
	C441.082764,264.975464 441.082764,266.492371 441.082764,268.378601 
	C446.920959,265.682373 452.058746,258.364441 458.838928,266.697266 
z"/>
<path fill="#F5F3F2" opacity="1.000000" stroke="none" 
	d="
M626.492676,285.580261 
	C626.004639,287.587982 625.529663,289.188782 625.324219,290.823425 
	C624.905579,294.153656 623.051819,294.349579 619.769348,293.125641 
	C621.499573,284.917267 623.420654,276.770721 624.853638,268.539185 
	C625.444275,265.146484 626.700439,263.383270 630.498108,263.619934 
	C630.793274,264.702545 631.119019,265.897156 631.514099,267.346222 
	C632.434814,266.948364 633.164124,266.619598 633.903809,266.316101 
	C636.613892,265.204132 639.247803,263.505463 642.057739,263.129578 
	C646.571228,262.525909 649.498962,265.711029 648.715149,270.158600 
	C647.482178,277.154541 645.981812,284.115753 644.219727,290.995636 
	C643.869324,292.363983 641.832397,293.300415 640.573120,294.436005 
	C640.000488,294.063171 639.427795,293.690338 638.855103,293.317505 
	C640.031189,287.429504 641.206787,281.541382 642.384033,275.653625 
	C642.578003,274.683380 643.042969,273.679199 642.918274,272.753265 
	C642.713989,271.236328 642.547180,269.002960 641.594788,268.483795 
	C640.482910,267.877686 638.250488,268.327026 637.015381,269.117310 
	C631.167297,272.859222 627.190918,277.960236 626.492676,285.580261 
M630.823486,268.468750 
	C630.659119,268.451721 630.494812,268.434692 630.330444,268.417664 
	C630.403503,268.512939 630.476562,268.608246 630.823486,268.468750 
z"/>
<path fill="#F5F3F3" opacity="1.000000" stroke="none" 
	d="
M288.819275,270.932739 
	C292.234192,266.416870 295.930817,262.652222 301.672394,263.135284 
	C304.011566,263.332092 307.459442,264.630585 308.160522,266.344818 
	C309.005981,268.412262 308.362946,272.485840 306.777100,273.861755 
	C303.384003,276.805725 299.128326,278.961090 294.916290,280.681335 
	C292.235779,281.776062 289.789612,282.943634 291.340179,285.684570 
	C292.440887,287.630310 295.412933,289.375641 297.685425,289.562805 
	C300.033569,289.756195 302.545685,287.958160 306.085205,286.613831 
	C305.543335,288.819214 305.664734,290.782776 304.795929,291.442749 
	C300.691528,294.560486 295.844177,294.979431 291.103302,293.447296 
	C286.769745,292.046814 284.878204,288.024719 285.210236,283.990631 
	C285.565094,279.679382 287.430328,275.492462 288.819275,270.932739 
M293.499847,273.044495 
	C293.058228,274.165405 292.616608,275.286346 292.174957,276.407257 
	C292.492523,276.786682 292.810059,277.166107 293.127625,277.545532 
	C296.120239,275.833130 299.248383,274.306641 302.017639,272.287842 
	C302.784912,271.728485 302.485992,269.706604 302.676239,268.355743 
	C301.447937,268.226746 299.896545,267.566132 299.056824,268.076477 
	C297.158508,269.230225 295.611572,270.962067 293.499847,273.044495 
z"/>
<path fill="#F5F3F3" opacity="1.000000" stroke="none" 
	d="
M584.889587,266.379303 
	C585.405396,273.034668 585.879089,279.247345 586.352722,285.460022 
	C586.906311,285.587982 587.459839,285.715942 588.013367,285.843903 
	C591.224304,279.797882 594.659546,273.856537 597.550781,267.661316 
	C598.977905,264.603455 600.454407,262.986786 604.779480,264.589172 
	C602.194336,269.584778 599.768494,274.545746 597.089722,279.366241 
	C594.755981,283.565887 592.307678,287.727478 589.542297,291.646423 
	C588.687622,292.857605 586.599487,293.823914 585.127258,293.758087 
	C584.113220,293.712738 582.521484,291.799652 582.329285,290.546234 
	C581.026733,282.052917 580.028320,273.512970 578.687134,263.087891 
	C581.551758,264.412598 583.199585,265.174622 584.889587,266.379303 
z"/>
<path fill="#F5F3F2" opacity="1.000000" stroke="none" 
	d="
M700.690063,262.998688 
	C702.657410,263.465179 704.205383,263.922302 706.032043,264.461700 
	C705.485718,266.068542 705.077942,267.267914 704.679321,268.440277 
	C702.186523,268.163055 699.877441,267.562683 697.648926,267.781708 
	C696.212402,267.922943 694.239258,268.976105 693.715454,270.156830 
	C693.235352,271.239105 694.034790,273.291260 694.891541,274.461151 
	C695.938049,275.890045 697.647095,276.826996 699.043335,278.007812 
	C702.059448,280.558655 703.804016,283.634003 702.455505,287.666779 
	C701.100220,291.719757 698.173645,293.979858 693.879333,294.002991 
	C691.431274,294.016205 688.828125,293.933990 686.592529,293.098267 
	C685.396301,292.651062 684.831299,290.515350 683.981384,289.141632 
	C684.423889,288.787994 684.866394,288.434357 685.308838,288.080719 
	C686.985657,288.641632 688.719727,289.782349 690.325378,289.623596 
	C692.568542,289.401855 695.322998,288.741577 696.656921,287.217224 
	C697.361450,286.412231 695.661926,283.311615 694.758545,281.382904 
	C694.381409,280.577637 693.268250,280.102844 692.462463,279.515198 
	C689.096191,277.060150 687.022522,273.873444 688.300293,269.668457 
	C689.661194,265.189636 693.128479,263.107697 697.772522,262.990906 
	C698.604736,262.969971 699.437988,262.988831 700.690063,262.998688 
z"/>
<path fill="#F5F3F2" opacity="1.000000" stroke="none" 
	d="
M376.015625,288.765198 
	C372.131531,293.937286 366.406860,295.563934 360.895599,293.479584 
	C358.149902,292.441132 357.025269,290.996887 359.402161,288.112762 
	C361.197144,288.695892 363.091827,289.889771 364.872009,289.738251 
	C366.937347,289.562408 369.591461,288.695679 370.664948,287.186401 
	C371.364349,286.203064 369.938721,283.413727 369.010956,281.675903 
	C368.437256,280.601318 367.011200,279.981964 365.968292,279.157562 
	C362.839539,276.684326 361.116486,273.537109 362.303528,269.560944 
	C363.527740,265.460175 366.700897,263.276825 370.857117,263.085388 
	C373.738312,262.952728 376.654083,263.570160 379.958679,263.891785 
	C379.456390,265.902679 379.149963,267.129456 378.779633,268.612061 
	C377.181793,268.319214 375.692780,267.664520 374.347229,267.885071 
	C372.065277,268.259094 369.873810,269.185333 367.644318,269.879486 
	C368.599304,271.934631 369.072479,274.502411 370.605164,275.942932 
	C374.296814,279.412506 378.643311,282.281891 376.015625,288.765198 
z"/>
<path fill="#F5F3F2" opacity="1.000000" stroke="none" 
	d="
M351.733429,258.626892 
	C352.295105,255.779068 352.365845,253.173676 353.325073,250.951859 
	C354.151764,249.037048 355.990509,247.559189 357.381805,245.888153 
	C358.006927,246.249191 358.632050,246.610245 359.257141,246.971283 
	C358.212006,251.913727 357.168182,256.856445 356.121399,261.798553 
	C354.101868,271.333466 351.895355,280.834381 350.155029,290.419983 
	C349.495117,294.054657 347.675934,294.097229 344.265106,293.528381 
	C346.756958,281.855255 349.192566,270.445526 351.733429,258.626892 
z"/>
<path fill="#F5F3F2" opacity="1.000000" stroke="none" 
	d="
M609.493164,272.446716 
	C609.979614,270.435242 610.473389,268.836548 610.641541,267.204315 
	C610.961487,264.097809 612.508423,263.236237 615.969543,264.524597 
	C615.652588,266.740143 615.429077,269.115967 614.957458,271.441437 
	C613.679810,277.742035 612.202515,284.003204 610.992188,290.316040 
	C610.307007,293.889679 608.478394,294.595001 605.126709,293.173462 
	C606.543579,286.358673 607.948547,279.601501 609.493164,272.446716 
z"/>
<path fill="#F5F3F3" opacity="1.000000" stroke="none" 
	d="
M618.876221,250.049377 
	C618.562500,252.165833 618.223450,254.096649 617.317200,255.708664 
	C617.100281,256.094574 614.353455,255.829117 613.909973,255.134995 
	C613.256653,254.112427 613.053040,251.664383 613.679199,251.199692 
	C614.977966,250.235916 616.948608,250.177505 618.876221,250.049377 
z"/>
<path fill="#E69D71" opacity="1.000000" stroke="none" 
	d="
M773.780334,90.154236 
	C779.025879,94.560234 778.926331,100.123390 777.559021,105.532227 
	C776.168640,111.031921 771.800903,114.066200 766.367981,114.911369 
	C761.207764,115.714134 755.940369,115.828415 750.335938,116.276123 
	C750.335938,105.927162 750.335938,96.535240 750.335938,86.616028 
	C758.358521,86.277718 766.253845,85.366089 773.780334,90.154236 
z"/>
<path fill="#E69E73" opacity="1.000000" stroke="none" 
	d="
M541.172852,109.763519 
	C543.453186,116.005730 545.610718,121.877731 547.988647,128.349701 
	C538.631226,128.349701 529.953003,128.349701 520.272522,128.349701 
	C524.758972,115.878227 529.138550,103.703606 533.995667,90.201706 
	C536.607239,97.306458 538.828613,103.349884 541.172852,109.763519 
z"/>
<path fill="#E69C70" opacity="1.000000" stroke="none" 
	d="
M275.107483,272.008484 
	C271.848602,284.415131 261.452423,290.527039 247.227417,288.479797 
	C249.252304,277.932068 251.224457,267.388977 253.374084,256.882233 
	C253.587387,255.839630 254.789352,254.322525 255.691803,254.200058 
	C267.627136,252.580307 277.994720,257.980377 275.107483,272.008484 
z"/>
<path fill="#E69D71" opacity="1.000000" stroke="none" 
	d="
M663.770630,271.804871 
	C667.017639,268.370697 670.429138,266.360077 675.257141,267.419220 
	C674.874451,274.987305 672.859253,281.681671 667.153687,286.643463 
	C665.486450,288.093323 662.932861,288.523895 660.785522,289.421661 
	C660.204529,287.113220 658.766052,284.612061 659.232056,282.539001 
	C660.046814,278.914734 662.032043,275.553558 663.770630,271.804871 
z"/>
<path fill="#E69D71" opacity="1.000000" stroke="none" 
	d="
M482.419800,282.302612 
	C479.982391,284.778442 477.940613,287.186615 475.494354,289.069275 
	C472.941223,291.034180 471.091034,289.479645 470.186096,286.937622 
	C467.518890,279.445465 473.431671,269.160126 481.329620,267.458221 
	C484.829773,266.704010 487.158813,267.580994 486.033447,271.751068 
	C485.096863,275.221436 483.783905,278.590179 482.419800,282.302612 
z"/>
<path fill="#E69D71" opacity="1.000000" stroke="none" 
	d="
M566.245422,267.798767 
	C566.756409,276.405792 563.459167,283.167725 556.969604,288.294525 
	C555.839233,289.187531 553.810120,289.735931 552.518738,289.353729 
	C551.655334,289.098145 550.997192,286.947632 550.873169,285.588043 
	C549.966248,275.644257 557.557373,266.640076 566.245422,267.798767 
z"/>
<path fill="#E69D71" opacity="1.000000" stroke="none" 
	d="
M329.474060,283.379944 
	C328.287354,284.806732 327.507996,286.260773 326.293457,286.990845 
	C324.434021,288.108551 322.274628,288.727203 320.242523,289.557648 
	C319.567902,287.292908 317.845673,284.701263 318.429810,282.829376 
	C319.776459,278.514221 321.711548,274.146271 324.420502,270.565979 
	C326.666718,267.597290 330.386261,265.844086 335.515320,268.599365 
	C333.558929,273.460602 331.622681,278.271759 329.474060,283.379944 
z"/>
<path fill="#E69D71" opacity="1.000000" stroke="none" 
	d="
M409.793030,288.910492 
	C406.055634,291.154663 404.876465,288.718353 404.204437,286.200165 
	C402.502747,279.823425 409.460938,268.645660 415.904999,267.371124 
	C417.376465,267.080139 418.995239,267.533905 420.703888,267.656189 
	C419.811279,276.500397 417.215820,283.762054 409.793030,288.910492 
z"/>
<path fill="#E69B6E" opacity="1.000000" stroke="none" 
	d="
M630.686523,268.586121 
	C630.476562,268.608246 630.403503,268.512939 630.330444,268.417664 
	C630.494812,268.434692 630.659119,268.451721 630.686523,268.586121 
z"/>
<path fill="#E69E73" opacity="1.000000" stroke="none" 
	d="
M293.710785,272.751648 
	C295.611572,270.962067 297.158508,269.230225 299.056824,268.076477 
	C299.896545,267.566132 301.447937,268.226746 302.676239,268.355743 
	C302.485992,269.706604 302.784912,271.728485 302.017639,272.287842 
	C299.248383,274.306641 296.120239,275.833130 293.127625,277.545532 
	C292.810059,277.166107 292.492523,276.786682 292.174957,276.407257 
	C292.616608,275.286346 293.058228,274.165405 293.710785,272.751648 
z"/>
</svg>